<mxfile host="app.diagrams.net" modified="2024-02-29T23:35:46.284Z" agent="Mozilla/5.0 (Macintosh; Intel Mac OS X 10_15_7) AppleWebKit/537.36 (KHTML, like Gecko) Chrome/121.0.0.0 Safari/537.36" etag="uRZidUgLUfaF30n1nvj6" version="23.1.4" type="device">
  <diagram id="BTJkaVfzhsUbHGsM2eKE" name="Page-1">
    <mxGraphModel dx="1710" dy="2262" grid="1" gridSize="10" guides="1" tooltips="1" connect="1" arrows="1" fold="1" page="1" pageScale="1" pageWidth="850" pageHeight="1100" math="0" shadow="0">
      <root>
        <mxCell id="0" />
        <mxCell id="1" parent="0" />
        <mxCell id="crj6zKZZUfJQIS7Cw5VU-27" value="&lt;div style=&quot;border-color: var(--border-color); color: rgb(0, 0, 0); font-family: Helvetica; font-size: 13px; font-style: normal; font-variant-ligatures: normal; font-variant-caps: normal; font-weight: 400; letter-spacing: normal; orphans: 2; text-align: center; text-indent: 0px; text-transform: none; widows: 2; word-spacing: 0px; -webkit-text-stroke-width: 0px; background-color: rgb(251, 251, 251); text-decoration-thickness: initial; text-decoration-style: initial; text-decoration-color: initial;&quot;&gt;Secondary activation switch (Panasonic AQV252)&lt;/div&gt;" style="text;html=1;strokeColor=none;fillColor=none;align=center;verticalAlign=middle;whiteSpace=wrap;rounded=0;fontSize=13;" parent="1" vertex="1">
          <mxGeometry x="4136.5" y="679" width="185" height="71" as="geometry" />
        </mxCell>
        <mxCell id="VNUVc3ocm5papmvAgX4y-105" style="edgeStyle=orthogonalEdgeStyle;rounded=0;orthogonalLoop=1;jettySize=auto;html=1;entryX=1;entryY=0.5;entryDx=0;entryDy=0;strokeWidth=10;endArrow=baseDash;endFill=0;startArrow=baseDash;startFill=0;strokeColor=#00CC00;" parent="1" edge="1">
          <mxGeometry relative="1" as="geometry">
            <mxPoint x="4190" y="322" as="sourcePoint" />
            <mxPoint x="4079" y="322" as="targetPoint" />
            <Array as="points">
              <mxPoint x="4160" y="322" />
              <mxPoint x="4160" y="322" />
            </Array>
          </mxGeometry>
        </mxCell>
        <mxCell id="VNUVc3ocm5papmvAgX4y-103" style="edgeStyle=orthogonalEdgeStyle;rounded=0;orthogonalLoop=1;jettySize=auto;html=1;strokeWidth=10;endArrow=baseDash;endFill=0;startArrow=baseDash;startFill=0;strokeColor=#00CC00;" parent="1" edge="1">
          <mxGeometry relative="1" as="geometry">
            <mxPoint x="3916" y="50" as="sourcePoint" />
            <mxPoint x="3880" y="50" as="targetPoint" />
            <Array as="points">
              <mxPoint x="3916" y="50" />
            </Array>
          </mxGeometry>
        </mxCell>
        <mxCell id="VNUVc3ocm5papmvAgX4y-99" style="edgeStyle=orthogonalEdgeStyle;rounded=0;orthogonalLoop=1;jettySize=auto;html=1;exitX=0.197;exitY=0.98;exitDx=0;exitDy=0;exitPerimeter=0;strokeWidth=10;endArrow=baseDash;endFill=0;strokeColor=#FF0000;startArrow=baseDash;startFill=0;" parent="1" edge="1">
          <mxGeometry relative="1" as="geometry">
            <mxPoint x="3759" y="-393" as="sourcePoint" />
            <mxPoint x="3759" y="-362" as="targetPoint" />
          </mxGeometry>
        </mxCell>
        <mxCell id="VNUVc3ocm5papmvAgX4y-95" style="edgeStyle=orthogonalEdgeStyle;rounded=0;orthogonalLoop=1;jettySize=auto;html=1;entryX=1;entryY=0.5;entryDx=0;entryDy=0;strokeWidth=10;endArrow=baseDash;endFill=0;startArrow=baseDash;startFill=0;strokeColor=#00CC00;" parent="1" edge="1">
          <mxGeometry relative="1" as="geometry">
            <mxPoint x="4190" y="-97" as="sourcePoint" />
            <mxPoint x="4079" y="-97" as="targetPoint" />
            <Array as="points">
              <mxPoint x="4160" y="-97" />
              <mxPoint x="4160" y="-97" />
            </Array>
          </mxGeometry>
        </mxCell>
        <mxCell id="VNUVc3ocm5papmvAgX4y-96" style="edgeStyle=orthogonalEdgeStyle;rounded=0;orthogonalLoop=1;jettySize=auto;html=1;entryX=1;entryY=0.5;entryDx=0;entryDy=0;strokeWidth=10;endArrow=baseDash;endFill=0;startArrow=baseDash;startFill=0;strokeColor=#00CC00;" parent="1" edge="1">
          <mxGeometry relative="1" as="geometry">
            <mxPoint x="4190" y="52" as="sourcePoint" />
            <mxPoint x="4079" y="52" as="targetPoint" />
            <Array as="points">
              <mxPoint x="4160" y="52" />
              <mxPoint x="4160" y="52" />
            </Array>
          </mxGeometry>
        </mxCell>
        <mxCell id="VNUVc3ocm5papmvAgX4y-97" style="edgeStyle=orthogonalEdgeStyle;rounded=0;orthogonalLoop=1;jettySize=auto;html=1;entryX=1;entryY=0.5;entryDx=0;entryDy=0;strokeWidth=10;endArrow=baseDash;endFill=0;startArrow=baseDash;startFill=0;strokeColor=#00CC00;" parent="1" edge="1">
          <mxGeometry relative="1" as="geometry">
            <mxPoint x="4190" y="182" as="sourcePoint" />
            <mxPoint x="4079" y="182" as="targetPoint" />
            <Array as="points">
              <mxPoint x="4160" y="182" />
              <mxPoint x="4160" y="182" />
            </Array>
          </mxGeometry>
        </mxCell>
        <mxCell id="VNUVc3ocm5papmvAgX4y-98" style="edgeStyle=orthogonalEdgeStyle;rounded=0;orthogonalLoop=1;jettySize=auto;html=1;entryX=1;entryY=0.5;entryDx=0;entryDy=0;strokeWidth=10;endArrow=baseDash;endFill=0;startArrow=baseDash;startFill=0;strokeColor=#00CC00;" parent="1" edge="1">
          <mxGeometry relative="1" as="geometry">
            <mxPoint x="4190" y="252" as="sourcePoint" />
            <mxPoint x="4079" y="252" as="targetPoint" />
            <Array as="points">
              <mxPoint x="4160" y="252" />
              <mxPoint x="4160" y="252" />
            </Array>
          </mxGeometry>
        </mxCell>
        <mxCell id="VNUVc3ocm5papmvAgX4y-2" value="" style="rounded=0;whiteSpace=wrap;html=1;fontSize=28;fillColor=#dae8fc;strokeColor=#6c8ebf;" parent="1" vertex="1">
          <mxGeometry x="5159" y="64.13" width="205" height="285" as="geometry" />
        </mxCell>
        <mxCell id="VNUVc3ocm5papmvAgX4y-11" value="" style="rounded=0;whiteSpace=wrap;html=1;dashed=1;dashPattern=12 12;" parent="1" vertex="1">
          <mxGeometry x="5386" y="96.13" width="210" height="230" as="geometry" />
        </mxCell>
        <mxCell id="VNUVc3ocm5papmvAgX4y-3" value="" style="rounded=0;whiteSpace=wrap;html=1;fillColor=#ffe6cc;strokeColor=#d79b00;" parent="1" vertex="1">
          <mxGeometry x="5619" y="62.629999999999995" width="230" height="285" as="geometry" />
        </mxCell>
        <mxCell id="rmLvAz5VPHVxDJYR2BQ0-23" value="&lt;meta charset=&quot;utf-8&quot; style=&quot;font-size: 16px;&quot;&gt;&lt;div style=&quot;border-color: var(--border-color); color: rgb(0, 0, 0); font-family: Helvetica; font-size: 16px; font-style: normal; font-variant-ligatures: normal; font-variant-caps: normal; font-weight: 400; letter-spacing: normal; orphans: 2; text-align: center; text-indent: 0px; text-transform: none; widows: 2; word-spacing: 0px; -webkit-text-stroke-width: 0px; background-color: rgb(251, 251, 251); text-decoration-thickness: initial; text-decoration-style: initial; text-decoration-color: initial;&quot;&gt;Primary activation switch&lt;/div&gt;&lt;div style=&quot;border-color: var(--border-color); color: rgb(0, 0, 0); font-family: Helvetica; font-size: 16px; font-style: normal; font-variant-ligatures: normal; font-variant-caps: normal; font-weight: 400; letter-spacing: normal; orphans: 2; text-align: center; text-indent: 0px; text-transform: none; widows: 2; word-spacing: 0px; -webkit-text-stroke-width: 0px; background-color: rgb(251, 251, 251); text-decoration-thickness: initial; text-decoration-style: initial; text-decoration-color: initial;&quot;&gt;triggered when pulltab is removed&lt;/div&gt;" style="text;html=1;align=center;verticalAlign=middle;whiteSpace=wrap;rounded=0;fontSize=16;" parent="1" vertex="1">
          <mxGeometry x="3780" y="948" width="185" height="71" as="geometry" />
        </mxCell>
        <mxCell id="iXwFISsNoJBbpRE_qi9X-1" value="&lt;div&gt;3x 18650 batteries tabbed in parallel&lt;/div&gt;" style="rounded=0;whiteSpace=wrap;html=1;" parent="1" vertex="1">
          <mxGeometry x="1450" y="535.51" width="190" height="60" as="geometry" />
        </mxCell>
        <mxCell id="iXwFISsNoJBbpRE_qi9X-2" value="Battery protection circuity" style="rounded=0;whiteSpace=wrap;html=1;" parent="1" vertex="1">
          <mxGeometry x="1225" y="535.51" width="120" height="60" as="geometry" />
        </mxCell>
        <mxCell id="iXwFISsNoJBbpRE_qi9X-3" value="" style="endArrow=none;startArrow=none;html=1;exitX=1.012;exitY=0.344;exitDx=0;exitDy=0;exitPerimeter=0;entryX=0;entryY=0.344;entryDx=0;entryDy=0;entryPerimeter=0;fillColor=#f8cecc;strokeColor=#b85450;startFill=0;endFill=0;strokeWidth=2;" parent="1" source="iXwFISsNoJBbpRE_qi9X-2" target="iXwFISsNoJBbpRE_qi9X-1" edge="1">
          <mxGeometry width="50" height="50" relative="1" as="geometry">
            <mxPoint x="1340" y="635.51" as="sourcePoint" />
            <mxPoint x="1390" y="585.51" as="targetPoint" />
          </mxGeometry>
        </mxCell>
        <mxCell id="iXwFISsNoJBbpRE_qi9X-4" value="" style="endArrow=none;startArrow=none;html=1;entryX=0;entryY=0.75;entryDx=0;entryDy=0;exitX=1;exitY=0.75;exitDx=0;exitDy=0;startFill=0;endFill=0;fillColor=#f5f5f5;strokeColor=#666666;endSize=6;strokeWidth=2;" parent="1" source="iXwFISsNoJBbpRE_qi9X-2" target="iXwFISsNoJBbpRE_qi9X-1" edge="1">
          <mxGeometry width="50" height="50" relative="1" as="geometry">
            <mxPoint x="1350" y="575.51" as="sourcePoint" />
            <mxPoint x="1450" y="575.5100000000001" as="targetPoint" />
          </mxGeometry>
        </mxCell>
        <mxCell id="iXwFISsNoJBbpRE_qi9X-5" value="" style="endArrow=none;startArrow=none;html=1;exitX=1.012;exitY=0.344;exitDx=0;exitDy=0;exitPerimeter=0;fillColor=#f8cecc;strokeColor=#b85450;startFill=0;endFill=0;strokeWidth=2;" parent="1" edge="1">
          <mxGeometry width="50" height="50" relative="1" as="geometry">
            <mxPoint x="1440" y="454.51" as="sourcePoint" />
            <mxPoint x="1490" y="454.51" as="targetPoint" />
          </mxGeometry>
        </mxCell>
        <mxCell id="iXwFISsNoJBbpRE_qi9X-6" value="22 AWG Copper wire with&lt;br&gt;PVC insulation" style="text;html=1;align=center;verticalAlign=middle;resizable=0;points=[];autosize=1;" parent="1" vertex="1">
          <mxGeometry x="1490" y="445.51" width="150" height="30" as="geometry" />
        </mxCell>
        <mxCell id="iXwFISsNoJBbpRE_qi9X-7" value="Cell +" style="text;html=1;align=center;verticalAlign=middle;resizable=0;points=[];autosize=1;" parent="1" vertex="1">
          <mxGeometry x="1367" y="539.51" width="50" height="20" as="geometry" />
        </mxCell>
        <mxCell id="iXwFISsNoJBbpRE_qi9X-8" value="Wire Legend" style="text;html=1;align=center;verticalAlign=middle;resizable=0;points=[];autosize=1;" parent="1" vertex="1">
          <mxGeometry x="1470" y="420.51" width="80" height="20" as="geometry" />
        </mxCell>
        <mxCell id="iXwFISsNoJBbpRE_qi9X-9" value="Cell -" style="text;html=1;align=center;verticalAlign=middle;resizable=0;points=[];autosize=1;" parent="1" vertex="1">
          <mxGeometry x="1371" y="580.51" width="40" height="20" as="geometry" />
        </mxCell>
        <mxCell id="iXwFISsNoJBbpRE_qi9X-10" value="" style="endArrow=none;startArrow=none;html=1;exitX=1.012;exitY=0.344;exitDx=0;exitDy=0;exitPerimeter=0;fillColor=#f5f5f5;strokeColor=#666666;startFill=0;endFill=0;strokeWidth=2;" parent="1" edge="1">
          <mxGeometry width="50" height="50" relative="1" as="geometry">
            <mxPoint x="1440" y="464.51" as="sourcePoint" />
            <mxPoint x="1490" y="464.51" as="targetPoint" />
          </mxGeometry>
        </mxCell>
        <mxCell id="iXwFISsNoJBbpRE_qi9X-11" value="KARS flight computer, Iridium radio, all circuitry except battery protection" style="rounded=0;whiteSpace=wrap;html=1;" parent="1" vertex="1">
          <mxGeometry x="1225" y="325.51" width="225" height="60" as="geometry" />
        </mxCell>
        <mxCell id="iXwFISsNoJBbpRE_qi9X-13" value="" style="endArrow=none;html=1;strokeWidth=2;entryX=0.428;entryY=1;entryDx=0;entryDy=0;exitX=0.469;exitY=0;exitDx=0;exitDy=0;exitPerimeter=0;fillColor=#f5f5f5;strokeColor=#666666;entryPerimeter=0;" parent="1" target="iXwFISsNoJBbpRE_qi9X-11" edge="1">
          <mxGeometry width="50" height="50" relative="1" as="geometry">
            <mxPoint x="1321.28" y="535.51" as="sourcePoint" />
            <mxPoint x="1321.25" y="395.51" as="targetPoint" />
          </mxGeometry>
        </mxCell>
        <mxCell id="iXwFISsNoJBbpRE_qi9X-14" value="Pack +" style="text;html=1;align=center;verticalAlign=middle;resizable=0;points=[];autosize=1;" parent="1" vertex="1">
          <mxGeometry x="1225" y="485.51" width="50" height="20" as="geometry" />
        </mxCell>
        <mxCell id="iXwFISsNoJBbpRE_qi9X-15" value="Pack -" style="text;html=1;align=center;verticalAlign=middle;resizable=0;points=[];autosize=1;" parent="1" vertex="1">
          <mxGeometry x="1321" y="485.51" width="50" height="20" as="geometry" />
        </mxCell>
        <mxCell id="iXwFISsNoJBbpRE_qi9X-16" value="" style="endArrow=none;html=1;strokeWidth=1;exitX=0.469;exitY=0;exitDx=0;exitDy=0;exitPerimeter=0;fillColor=#f8cecc;strokeColor=#b85450;" parent="1" source="iXwFISsNoJBbpRE_qi9X-17" edge="1">
          <mxGeometry width="50" height="50" relative="1" as="geometry">
            <mxPoint x="1281.28" y="535.51" as="sourcePoint" />
            <mxPoint x="1281" y="465.51" as="targetPoint" />
          </mxGeometry>
        </mxCell>
        <mxCell id="iXwFISsNoJBbpRE_qi9X-17" value="" style="ellipse;whiteSpace=wrap;html=1;" parent="1" vertex="1">
          <mxGeometry x="1275" y="455.51" width="10" height="10" as="geometry" />
        </mxCell>
        <mxCell id="iXwFISsNoJBbpRE_qi9X-18" value="" style="endArrow=none;html=1;strokeWidth=2;exitX=0.463;exitY=0.001;exitDx=0;exitDy=0;exitPerimeter=0;fillColor=#f8cecc;strokeColor=#b85450;" parent="1" source="iXwFISsNoJBbpRE_qi9X-2" target="iXwFISsNoJBbpRE_qi9X-17" edge="1">
          <mxGeometry width="50" height="50" relative="1" as="geometry">
            <mxPoint x="1281.28" y="535.51" as="sourcePoint" />
            <mxPoint x="1281" y="465.51" as="targetPoint" />
          </mxGeometry>
        </mxCell>
        <mxCell id="iXwFISsNoJBbpRE_qi9X-20" value="" style="endArrow=none;html=1;strokeWidth=1;" parent="1" edge="1">
          <mxGeometry width="50" height="50" relative="1" as="geometry">
            <mxPoint x="1250" y="455.51" as="sourcePoint" />
            <mxPoint x="1280" y="425.51" as="targetPoint" />
          </mxGeometry>
        </mxCell>
        <mxCell id="iXwFISsNoJBbpRE_qi9X-21" value="" style="ellipse;whiteSpace=wrap;html=1;" parent="1" vertex="1">
          <mxGeometry x="1275" y="420.51" width="10" height="10" as="geometry" />
        </mxCell>
        <mxCell id="iXwFISsNoJBbpRE_qi9X-22" value="&lt;div&gt;Primary activation switch&lt;/div&gt;&lt;div&gt;triggered when capsule leaves&lt;br&gt;&amp;nbsp;ejection mechanism&lt;/div&gt;" style="text;html=1;align=center;verticalAlign=middle;resizable=0;points=[];autosize=1;" parent="1" vertex="1">
          <mxGeometry x="1070" y="415.51" width="190" height="60" as="geometry" />
        </mxCell>
        <mxCell id="iXwFISsNoJBbpRE_qi9X-23" value="" style="endArrow=none;html=1;strokeWidth=2;fillColor=#f8cecc;strokeColor=#b85450;exitX=0.5;exitY=0;exitDx=0;exitDy=0;entryX=0.246;entryY=1.011;entryDx=0;entryDy=0;entryPerimeter=0;" parent="1" source="iXwFISsNoJBbpRE_qi9X-21" target="iXwFISsNoJBbpRE_qi9X-11" edge="1">
          <mxGeometry width="50" height="50" relative="1" as="geometry">
            <mxPoint x="1279" y="425.51" as="sourcePoint" />
            <mxPoint x="1279.3963269833182" y="385.50941740733833" as="targetPoint" />
          </mxGeometry>
        </mxCell>
        <mxCell id="iXwFISsNoJBbpRE_qi9X-25" value="KARS Electrical Inhibits and Battery Protection" style="text;html=1;strokeColor=none;fillColor=none;align=center;verticalAlign=middle;whiteSpace=wrap;rounded=0;fontSize=15;" parent="1" vertex="1">
          <mxGeometry x="1200" y="281.76" width="325" height="20" as="geometry" />
        </mxCell>
        <mxCell id="0DcWGhIIcSvqxJxgcLd7-2" value="" style="rounded=0;whiteSpace=wrap;html=1;dashed=1;" parent="1" vertex="1">
          <mxGeometry x="1070" y="-404.24" width="590" height="430" as="geometry" />
        </mxCell>
        <mxCell id="IGTn5Lk8PJS0qs72Q6MI-2" style="edgeStyle=orthogonalEdgeStyle;rounded=0;orthogonalLoop=1;jettySize=auto;html=1;entryX=0;entryY=0.5;entryDx=0;entryDy=0;strokeWidth=5;endArrow=block;endFill=1;fillColor=#f8cecc;strokeColor=#b85450;" parent="1" source="0DcWGhIIcSvqxJxgcLd7-4" target="IGTn5Lk8PJS0qs72Q6MI-1" edge="1">
          <mxGeometry relative="1" as="geometry" />
        </mxCell>
        <mxCell id="0DcWGhIIcSvqxJxgcLd7-4" value="&lt;font style=&quot;font-size: 28px;&quot;&gt;Battery Pack and Protection Circuitry&lt;/font&gt;" style="rounded=0;whiteSpace=wrap;html=1;fillColor=#f8cecc;strokeColor=#b85450;fontSize=28;" parent="1" vertex="1">
          <mxGeometry x="930" y="55.76" width="481" height="100" as="geometry" />
        </mxCell>
        <mxCell id="0DcWGhIIcSvqxJxgcLd7-6" value="9 axis IMU" style="rounded=0;whiteSpace=wrap;html=1;fillColor=#f5f5f5;strokeColor=#666666;fontSize=28;fontColor=#333333;" parent="1" vertex="1">
          <mxGeometry x="1131" y="-274.24" width="260" height="54.5" as="geometry" />
        </mxCell>
        <mxCell id="LpBiDxi0DtusZ-6YtQt1-58" style="edgeStyle=orthogonalEdgeStyle;rounded=1;orthogonalLoop=1;jettySize=auto;html=1;fontSize=29;endArrow=block;endFill=1;strokeColor=#000000;strokeWidth=5;entryX=-0.001;entryY=0.302;entryDx=0;entryDy=0;entryPerimeter=0;" parent="1" source="0DcWGhIIcSvqxJxgcLd7-8" target="0DcWGhIIcSvqxJxgcLd7-19" edge="1">
          <mxGeometry relative="1" as="geometry">
            <mxPoint x="1681" y="-254.24" as="targetPoint" />
          </mxGeometry>
        </mxCell>
        <mxCell id="0DcWGhIIcSvqxJxgcLd7-8" value="Thermocouple to digital converter" style="rounded=0;whiteSpace=wrap;html=1;fillColor=#fff2cc;strokeColor=#d6b656;fontSize=28;" parent="1" vertex="1">
          <mxGeometry x="1451" y="-344.24" width="189" height="140" as="geometry" />
        </mxCell>
        <mxCell id="0DcWGhIIcSvqxJxgcLd7-9" value="High-g accelerometer" style="rounded=0;whiteSpace=wrap;html=1;fillColor=#f5f5f5;strokeColor=#666666;fontSize=28;fontColor=#333333;" parent="1" vertex="1">
          <mxGeometry x="1101" y="-344.24" width="290" height="50" as="geometry" />
        </mxCell>
        <mxCell id="LpBiDxi0DtusZ-6YtQt1-69" style="edgeStyle=orthogonalEdgeStyle;rounded=1;orthogonalLoop=1;jettySize=auto;html=1;fontSize=29;endArrow=block;endFill=1;strokeColor=#CC00CC;strokeWidth=4;" parent="1" source="0DcWGhIIcSvqxJxgcLd7-10" target="0DcWGhIIcSvqxJxgcLd7-12" edge="1">
          <mxGeometry relative="1" as="geometry" />
        </mxCell>
        <mxCell id="0DcWGhIIcSvqxJxgcLd7-10" value="Iridium Modem" style="rounded=0;whiteSpace=wrap;html=1;fontSize=28;fillColor=#bac8d3;strokeColor=#23445d;" parent="1" vertex="1">
          <mxGeometry x="930" y="-164.24" width="120" height="80" as="geometry" />
        </mxCell>
        <mxCell id="0DcWGhIIcSvqxJxgcLd7-12" value="Iridium Antenna" style="rounded=0;whiteSpace=wrap;html=1;fontSize=28;fillColor=#bac8d3;strokeColor=#23445d;" parent="1" vertex="1">
          <mxGeometry x="930" y="-44.24" width="120" height="70" as="geometry" />
        </mxCell>
        <mxCell id="0DcWGhIIcSvqxJxgcLd7-14" value="SD storage" style="rounded=0;whiteSpace=wrap;html=1;fontSize=28;fillColor=#dae8fc;strokeColor=#6c8ebf;" parent="1" vertex="1">
          <mxGeometry x="1311" y="-148.74" width="170" height="120" as="geometry" />
        </mxCell>
        <mxCell id="0DcWGhIIcSvqxJxgcLd7-15" value="Flight Computer PCB" style="text;html=1;strokeColor=none;fillColor=none;align=center;verticalAlign=middle;whiteSpace=wrap;rounded=0;fontSize=28;" parent="1" vertex="1">
          <mxGeometry x="1231" y="-394.24" width="270" height="20" as="geometry" />
        </mxCell>
        <mxCell id="0DcWGhIIcSvqxJxgcLd7-18" value="KREPE Capsule Components" style="text;html=1;strokeColor=none;fillColor=none;align=center;verticalAlign=middle;whiteSpace=wrap;rounded=0;fontSize=28;" parent="1" vertex="1">
          <mxGeometry x="930" y="-454.24" width="396" height="20" as="geometry" />
        </mxCell>
        <mxCell id="0DcWGhIIcSvqxJxgcLd7-19" value="" style="rounded=0;whiteSpace=wrap;html=1;strokeColor=#d6b656;fontSize=14;fillColor=#fff2cc;" parent="1" vertex="1">
          <mxGeometry x="1690" y="-404.24" width="140" height="430" as="geometry" />
        </mxCell>
        <mxCell id="0DcWGhIIcSvqxJxgcLd7-20" value="&lt;span style=&quot;color: rgb(0, 0, 0); font-family: helvetica; font-size: 28px; font-style: normal; font-weight: 400; letter-spacing: normal; text-align: center; text-indent: 0px; text-transform: none; word-spacing: 0px; display: inline; float: none;&quot;&gt;T/C&lt;/span&gt;" style="text;html=1;strokeColor=none;fillColor=none;align=center;verticalAlign=middle;whiteSpace=wrap;rounded=0;fontSize=28;labelBackgroundColor=none;" parent="1" vertex="1">
          <mxGeometry x="1740" y="-394.24" width="40" height="20" as="geometry" />
        </mxCell>
        <mxCell id="0DcWGhIIcSvqxJxgcLd7-21" value="" style="rounded=0;whiteSpace=wrap;html=1;labelBackgroundColor=none;strokeColor=#b46504;fontSize=16;fillColor=#fad7ac;" parent="1" vertex="1">
          <mxGeometry x="1710" y="-334.24" width="100" height="40" as="geometry" />
        </mxCell>
        <mxCell id="0DcWGhIIcSvqxJxgcLd7-22" value="" style="ellipse;whiteSpace=wrap;html=1;rounded=0;labelBackgroundColor=none;strokeColor=#666666;fontSize=16;fillColor=#f5f5f5;fontColor=#333333;" parent="1" vertex="1">
          <mxGeometry x="1750" y="-236.24" width="20" height="20" as="geometry" />
        </mxCell>
        <mxCell id="0DcWGhIIcSvqxJxgcLd7-23" value="" style="ellipse;whiteSpace=wrap;html=1;rounded=0;labelBackgroundColor=none;strokeColor=#666666;fontSize=16;fillColor=#f5f5f5;fontColor=#333333;" parent="1" vertex="1">
          <mxGeometry x="1750" y="-186.24" width="20" height="20" as="geometry" />
        </mxCell>
        <mxCell id="0DcWGhIIcSvqxJxgcLd7-24" value="" style="ellipse;whiteSpace=wrap;html=1;rounded=0;labelBackgroundColor=none;strokeColor=#666666;fontSize=16;fillColor=#f5f5f5;fontColor=#333333;" parent="1" vertex="1">
          <mxGeometry x="1750" y="-136.24" width="20" height="20" as="geometry" />
        </mxCell>
        <mxCell id="0DcWGhIIcSvqxJxgcLd7-25" value="" style="rounded=0;whiteSpace=wrap;html=1;labelBackgroundColor=none;strokeColor=#b46504;fontSize=16;fillColor=#fad7ac;" parent="1" vertex="1">
          <mxGeometry x="1710" y="-59.74" width="100" height="41" as="geometry" />
        </mxCell>
        <mxCell id="0DcWGhIIcSvqxJxgcLd7-28" value="&lt;span style=&quot;font-size: 28px;&quot;&gt;Battery Charging&lt;/span&gt;" style="rounded=0;whiteSpace=wrap;html=1;fillColor=#f8cecc;strokeColor=#b85450;fontSize=28;" parent="1" vertex="1">
          <mxGeometry x="1511" y="-89.74000000000001" width="140" height="100" as="geometry" />
        </mxCell>
        <mxCell id="0DcWGhIIcSvqxJxgcLd7-29" value="&lt;font style=&quot;font-size: 28px;&quot;&gt;ISM Debug Radio&lt;/font&gt;" style="rounded=0;whiteSpace=wrap;html=1;fontSize=14;fillColor=#f5f5f5;strokeColor=#666666;fontColor=#333333;" parent="1" vertex="1">
          <mxGeometry x="930" y="-404.24" width="120" height="110" as="geometry" />
        </mxCell>
        <mxCell id="LpBiDxi0DtusZ-6YtQt1-62" style="edgeStyle=orthogonalEdgeStyle;rounded=1;orthogonalLoop=1;jettySize=auto;html=1;fontSize=29;endArrow=block;endFill=1;strokeColor=#FF9933;strokeWidth=5;" parent="1" source="LpBiDxi0DtusZ-6YtQt1-59" edge="1">
          <mxGeometry relative="1" as="geometry">
            <mxPoint x="1050" y="-104.24000000000001" as="targetPoint" />
            <Array as="points">
              <mxPoint x="1091" y="-104.24000000000001" />
              <mxPoint x="1091" y="-104.24000000000001" />
            </Array>
          </mxGeometry>
        </mxCell>
        <mxCell id="LpBiDxi0DtusZ-6YtQt1-63" style="edgeStyle=orthogonalEdgeStyle;rounded=1;orthogonalLoop=1;jettySize=auto;html=1;fontSize=29;endArrow=block;endFill=1;strokeColor=#007FFF;strokeWidth=4;" parent="1" source="LpBiDxi0DtusZ-6YtQt1-59" edge="1">
          <mxGeometry relative="1" as="geometry">
            <Array as="points">
              <mxPoint x="1086" y="-134.24" />
              <mxPoint x="1086" y="-324.24" />
            </Array>
            <mxPoint x="1051" y="-324.24" as="targetPoint" />
          </mxGeometry>
        </mxCell>
        <mxCell id="LpBiDxi0DtusZ-6YtQt1-64" style="edgeStyle=orthogonalEdgeStyle;rounded=1;orthogonalLoop=1;jettySize=auto;html=1;entryX=-0.01;entryY=0.309;entryDx=0;entryDy=0;entryPerimeter=0;fontSize=29;endArrow=block;endFill=1;strokeColor=#007FFF;strokeWidth=4;" parent="1" source="LpBiDxi0DtusZ-6YtQt1-59" target="0DcWGhIIcSvqxJxgcLd7-14" edge="1">
          <mxGeometry relative="1" as="geometry" />
        </mxCell>
        <mxCell id="LpBiDxi0DtusZ-6YtQt1-67" style="edgeStyle=orthogonalEdgeStyle;rounded=1;orthogonalLoop=1;jettySize=auto;html=1;entryX=0.257;entryY=0.998;entryDx=0;entryDy=0;fontSize=29;endArrow=block;endFill=1;strokeColor=#009900;strokeWidth=5;entryPerimeter=0;" parent="1" source="LpBiDxi0DtusZ-6YtQt1-59" target="0DcWGhIIcSvqxJxgcLd7-6" edge="1">
          <mxGeometry relative="1" as="geometry" />
        </mxCell>
        <mxCell id="LpBiDxi0DtusZ-6YtQt1-68" style="edgeStyle=orthogonalEdgeStyle;rounded=1;orthogonalLoop=1;jettySize=auto;html=1;fontSize=29;endArrow=block;endFill=1;strokeColor=#009900;strokeWidth=5;" parent="1" edge="1">
          <mxGeometry relative="1" as="geometry">
            <mxPoint x="1191" y="-154.24" as="sourcePoint" />
            <mxPoint x="1121" y="-294.24" as="targetPoint" />
            <Array as="points">
              <mxPoint x="1191" y="-174.24" />
              <mxPoint x="1121" y="-174.24" />
              <mxPoint x="1121" y="-294.24" />
            </Array>
          </mxGeometry>
        </mxCell>
        <mxCell id="LpBiDxi0DtusZ-6YtQt1-70" style="edgeStyle=orthogonalEdgeStyle;rounded=1;orthogonalLoop=1;jettySize=auto;html=1;fontSize=29;endArrow=block;endFill=1;strokeColor=#007FFF;strokeWidth=4;" parent="1" source="LpBiDxi0DtusZ-6YtQt1-59" edge="1">
          <mxGeometry relative="1" as="geometry">
            <mxPoint x="1469" y="-204.24" as="targetPoint" />
            <Array as="points">
              <mxPoint x="1191" y="-164.24" />
              <mxPoint x="1469" y="-164.24" />
            </Array>
          </mxGeometry>
        </mxCell>
        <mxCell id="LpBiDxi0DtusZ-6YtQt1-78" style="edgeStyle=orthogonalEdgeStyle;rounded=1;orthogonalLoop=1;jettySize=auto;html=1;exitX=0;exitY=0.75;exitDx=0;exitDy=0;entryX=0;entryY=0.5;entryDx=0;entryDy=0;fontSize=22;endArrow=block;endFill=1;strokeColor=#000000;strokeWidth=4;" parent="1" source="LpBiDxi0DtusZ-6YtQt1-59" target="LpBiDxi0DtusZ-6YtQt1-61" edge="1">
          <mxGeometry relative="1" as="geometry">
            <Array as="points">
              <mxPoint x="1081" y="-93.24000000000001" />
              <mxPoint x="1081" y="-27.240000000000002" />
            </Array>
          </mxGeometry>
        </mxCell>
        <mxCell id="Hg2oVbrzCMMPYZxzTnF7-3" style="edgeStyle=elbowEdgeStyle;rounded=1;orthogonalLoop=1;jettySize=auto;html=1;entryX=1.006;entryY=0.888;entryDx=0;entryDy=0;entryPerimeter=0;strokeWidth=4;" parent="1" source="LpBiDxi0DtusZ-6YtQt1-59" target="Hg2oVbrzCMMPYZxzTnF7-1" edge="1">
          <mxGeometry relative="1" as="geometry">
            <Array as="points">
              <mxPoint x="1081" y="-154.24" />
            </Array>
          </mxGeometry>
        </mxCell>
        <mxCell id="LpBiDxi0DtusZ-6YtQt1-59" value="&lt;span style=&quot;font-size: 28px;&quot;&gt;Teensy 3.5&lt;/span&gt;" style="rounded=0;whiteSpace=wrap;html=1;fillColor=#d5e8d4;strokeColor=#82b366;fontSize=28;" parent="1" vertex="1">
          <mxGeometry x="1121" y="-148.74" width="139" height="74.5" as="geometry" />
        </mxCell>
        <mxCell id="LpBiDxi0DtusZ-6YtQt1-65" style="edgeStyle=orthogonalEdgeStyle;rounded=1;orthogonalLoop=1;jettySize=auto;html=1;entryX=0.29;entryY=1.01;entryDx=0;entryDy=0;fontSize=29;endArrow=block;endFill=1;strokeColor=#007FFF;strokeWidth=4;entryPerimeter=0;exitX=1.001;exitY=0.832;exitDx=0;exitDy=0;exitPerimeter=0;" parent="1" source="LpBiDxi0DtusZ-6YtQt1-61" target="0DcWGhIIcSvqxJxgcLd7-8" edge="1">
          <mxGeometry relative="1" as="geometry">
            <Array as="points">
              <mxPoint x="1276" y="-4.240000000000002" />
              <mxPoint x="1506" y="-4.240000000000002" />
            </Array>
          </mxGeometry>
        </mxCell>
        <mxCell id="LpBiDxi0DtusZ-6YtQt1-61" value="&lt;span style=&quot;font-size: 28px;&quot;&gt;SAMD21E18&lt;/span&gt;" style="rounded=0;whiteSpace=wrap;html=1;fillColor=#d5e8d4;strokeColor=#82b366;fontSize=28;" parent="1" vertex="1">
          <mxGeometry x="1106.5" y="-64.24000000000001" width="169" height="74.5" as="geometry" />
        </mxCell>
        <mxCell id="LpBiDxi0DtusZ-6YtQt1-71" value="" style="endArrow=classic;html=1;rounded=1;fontSize=29;strokeColor=#009900;strokeWidth=4;" parent="1" edge="1">
          <mxGeometry width="50" height="50" relative="1" as="geometry">
            <mxPoint x="1426.25" y="-464.24" as="sourcePoint" />
            <mxPoint x="1469.75" y="-464.24" as="targetPoint" />
          </mxGeometry>
        </mxCell>
        <mxCell id="LpBiDxi0DtusZ-6YtQt1-72" value="SPI" style="text;html=1;align=center;verticalAlign=middle;resizable=0;points=[];autosize=1;strokeColor=none;fillColor=none;fontSize=28;" parent="1" vertex="1">
          <mxGeometry x="1333" y="-465.24" width="70" height="50" as="geometry" />
        </mxCell>
        <mxCell id="LpBiDxi0DtusZ-6YtQt1-73" value="" style="endArrow=classic;html=1;rounded=1;fontSize=29;strokeColor=#007FFF;strokeWidth=4;exitX=-0.022;exitY=-0.04;exitDx=0;exitDy=0;exitPerimeter=0;entryX=0.912;entryY=-0.06;entryDx=0;entryDy=0;entryPerimeter=0;" parent="1" source="LpBiDxi0DtusZ-6YtQt1-72" target="LpBiDxi0DtusZ-6YtQt1-72" edge="1">
          <mxGeometry width="50" height="50" relative="1" as="geometry">
            <mxPoint x="1346" y="-424.24" as="sourcePoint" />
            <mxPoint x="1396" y="-474.24" as="targetPoint" />
          </mxGeometry>
        </mxCell>
        <mxCell id="LpBiDxi0DtusZ-6YtQt1-74" value="I2C" style="text;html=1;align=center;verticalAlign=middle;resizable=0;points=[];autosize=1;strokeColor=none;fillColor=none;fontSize=28;" parent="1" vertex="1">
          <mxGeometry x="1410" y="-465.24" width="70" height="50" as="geometry" />
        </mxCell>
        <mxCell id="LpBiDxi0DtusZ-6YtQt1-75" value="" style="endArrow=classic;html=1;rounded=1;fontSize=29;strokeColor=#FF8000;strokeWidth=4;" parent="1" edge="1">
          <mxGeometry width="50" height="50" relative="1" as="geometry">
            <mxPoint x="1497" y="-467.24" as="sourcePoint" />
            <mxPoint x="1552" y="-468.24" as="targetPoint" />
          </mxGeometry>
        </mxCell>
        <mxCell id="LpBiDxi0DtusZ-6YtQt1-76" value="UART" style="text;html=1;align=center;verticalAlign=middle;resizable=0;points=[];autosize=1;strokeColor=none;fillColor=none;fontSize=28;" parent="1" vertex="1">
          <mxGeometry x="1479" y="-467.24" width="100" height="50" as="geometry" />
        </mxCell>
        <mxCell id="LpBiDxi0DtusZ-6YtQt1-79" value="" style="endArrow=classic;html=1;rounded=1;fontSize=29;strokeColor=#000000;strokeWidth=4;" parent="1" edge="1">
          <mxGeometry width="50" height="50" relative="1" as="geometry">
            <mxPoint x="1757" y="-465.24" as="sourcePoint" />
            <mxPoint x="1828" y="-467.24" as="targetPoint" />
          </mxGeometry>
        </mxCell>
        <mxCell id="LpBiDxi0DtusZ-6YtQt1-80" value="GPIO" style="text;html=1;align=center;verticalAlign=middle;resizable=0;points=[];autosize=1;strokeColor=none;fillColor=none;fontSize=28;" parent="1" vertex="1">
          <mxGeometry x="1750" y="-467.24" width="90" height="50" as="geometry" />
        </mxCell>
        <mxCell id="LpBiDxi0DtusZ-6YtQt1-82" value="" style="endArrow=classic;html=1;rounded=1;fontSize=29;strokeColor=#CC00CC;strokeWidth=4;" parent="1" edge="1">
          <mxGeometry width="50" height="50" relative="1" as="geometry">
            <mxPoint x="1586" y="-468.24" as="sourcePoint" />
            <mxPoint x="1643" y="-469.24" as="targetPoint" />
          </mxGeometry>
        </mxCell>
        <mxCell id="LpBiDxi0DtusZ-6YtQt1-83" value="RF" style="text;html=1;align=center;verticalAlign=middle;resizable=0;points=[];autosize=1;strokeColor=none;fillColor=none;fontSize=28;" parent="1" vertex="1">
          <mxGeometry x="1583.82" y="-469.24" width="60" height="50" as="geometry" />
        </mxCell>
        <mxCell id="LpBiDxi0DtusZ-6YtQt1-84" value="" style="endArrow=classic;html=1;rounded=1;fontSize=29;strokeColor=#FF0000;strokeWidth=4;" parent="1" edge="1">
          <mxGeometry width="50" height="50" relative="1" as="geometry">
            <mxPoint x="1668" y="-466.24" as="sourcePoint" />
            <mxPoint x="1734" y="-467.24" as="targetPoint" />
          </mxGeometry>
        </mxCell>
        <mxCell id="LpBiDxi0DtusZ-6YtQt1-85" value="Power" style="text;html=1;align=center;verticalAlign=middle;resizable=0;points=[];autosize=1;strokeColor=none;fillColor=none;fontSize=28;" parent="1" vertex="1">
          <mxGeometry x="1652" y="-467.24" width="100" height="50" as="geometry" />
        </mxCell>
        <mxCell id="LpBiDxi0DtusZ-6YtQt1-96" value="" style="rounded=0;whiteSpace=wrap;html=1;fontSize=14;" parent="1" vertex="1">
          <mxGeometry x="2340" y="-404.8699999999999" width="960" height="670" as="geometry" />
        </mxCell>
        <mxCell id="LpBiDxi0DtusZ-6YtQt1-97" value="" style="rounded=0;whiteSpace=wrap;html=1;" parent="1" vertex="1">
          <mxGeometry x="2510" y="-324.8699999999999" width="590" height="430" as="geometry" />
        </mxCell>
        <mxCell id="LpBiDxi0DtusZ-6YtQt1-98" value="&lt;font style=&quot;font-size: 28px;&quot;&gt;Battery Pack and Protection Circuitry&lt;/font&gt;" style="rounded=0;whiteSpace=wrap;html=1;fillColor=#f8cecc;strokeColor=#b85450;fontSize=28;" parent="1" vertex="1">
          <mxGeometry x="2370" y="135.1300000000001" width="901" height="100" as="geometry" />
        </mxCell>
        <mxCell id="LpBiDxi0DtusZ-6YtQt1-99" value="9 axis IMU" style="rounded=0;whiteSpace=wrap;html=1;fillColor=#f5f5f5;strokeColor=#666666;fontSize=28;fontColor=#333333;" parent="1" vertex="1">
          <mxGeometry x="2571" y="-194.8699999999999" width="150" height="54.5" as="geometry" />
        </mxCell>
        <mxCell id="LpBiDxi0DtusZ-6YtQt1-100" style="edgeStyle=orthogonalEdgeStyle;rounded=1;orthogonalLoop=1;jettySize=auto;html=1;fontSize=29;endArrow=block;endFill=1;strokeColor=#000000;strokeWidth=5;entryX=0.003;entryY=0.559;entryDx=0;entryDy=0;entryPerimeter=0;" parent="1" source="LpBiDxi0DtusZ-6YtQt1-101" target="LpBiDxi0DtusZ-6YtQt1-109" edge="1">
          <mxGeometry relative="1" as="geometry">
            <mxPoint x="3121" y="-174.8699999999999" as="targetPoint" />
          </mxGeometry>
        </mxCell>
        <mxCell id="LpBiDxi0DtusZ-6YtQt1-101" value="Thermocouple to digital converters" style="rounded=0;whiteSpace=wrap;html=1;fillColor=#fff2cc;strokeColor=#d6b656;fontSize=28;" parent="1" vertex="1">
          <mxGeometry x="2891" y="-264.8699999999999" width="189" height="140" as="geometry" />
        </mxCell>
        <mxCell id="LpBiDxi0DtusZ-6YtQt1-102" value="High-g accelerometer" style="rounded=0;whiteSpace=wrap;html=1;fillColor=#f5f5f5;strokeColor=#666666;fontSize=28;fontColor=#333333;" parent="1" vertex="1">
          <mxGeometry x="2541" y="-264.8699999999999" width="290" height="50" as="geometry" />
        </mxCell>
        <mxCell id="LpBiDxi0DtusZ-6YtQt1-103" style="edgeStyle=orthogonalEdgeStyle;rounded=1;orthogonalLoop=1;jettySize=auto;html=1;fontSize=29;endArrow=block;endFill=1;strokeColor=#CC00CC;strokeWidth=4;" parent="1" source="LpBiDxi0DtusZ-6YtQt1-104" target="LpBiDxi0DtusZ-6YtQt1-105" edge="1">
          <mxGeometry relative="1" as="geometry" />
        </mxCell>
        <mxCell id="LpBiDxi0DtusZ-6YtQt1-104" value="Iridium Modem" style="rounded=0;whiteSpace=wrap;html=1;fontSize=28;fillColor=#bac8d3;strokeColor=#23445d;" parent="1" vertex="1">
          <mxGeometry x="2370" y="-130.8699999999999" width="120" height="126" as="geometry" />
        </mxCell>
        <mxCell id="LpBiDxi0DtusZ-6YtQt1-105" value="Iridium Antenna" style="rounded=0;whiteSpace=wrap;html=1;fontSize=28;fillColor=#bac8d3;strokeColor=#23445d;" parent="1" vertex="1">
          <mxGeometry x="2370" y="35.13000000000011" width="120" height="70" as="geometry" />
        </mxCell>
        <mxCell id="LpBiDxi0DtusZ-6YtQt1-106" value="SD storage" style="rounded=0;whiteSpace=wrap;html=1;fontSize=28;fillColor=#dae8fc;strokeColor=#6c8ebf;" parent="1" vertex="1">
          <mxGeometry x="2750" y="-30.36999999999989" width="170" height="120" as="geometry" />
        </mxCell>
        <mxCell id="LpBiDxi0DtusZ-6YtQt1-107" value="Flight Computer PCB" style="text;html=1;strokeColor=none;fillColor=none;align=center;verticalAlign=middle;whiteSpace=wrap;rounded=0;fontSize=28;" parent="1" vertex="1">
          <mxGeometry x="2671" y="-314.8699999999999" width="270" height="20" as="geometry" />
        </mxCell>
        <mxCell id="LpBiDxi0DtusZ-6YtQt1-108" value="KARS-2 Capsule Components" style="text;html=1;strokeColor=none;fillColor=none;align=center;verticalAlign=middle;whiteSpace=wrap;rounded=0;fontSize=28;" parent="1" vertex="1">
          <mxGeometry x="2370" y="-374.8699999999999" width="396" height="20" as="geometry" />
        </mxCell>
        <mxCell id="LpBiDxi0DtusZ-6YtQt1-109" value="" style="rounded=0;whiteSpace=wrap;html=1;strokeColor=#d6b656;fontSize=14;fillColor=#fff2cc;" parent="1" vertex="1">
          <mxGeometry x="3130" y="-324.8699999999999" width="140" height="230" as="geometry" />
        </mxCell>
        <mxCell id="LpBiDxi0DtusZ-6YtQt1-110" value="&lt;span style=&quot;color: rgb(0, 0, 0); font-family: helvetica; font-size: 28px; font-style: normal; font-weight: 400; letter-spacing: normal; text-align: center; text-indent: 0px; text-transform: none; word-spacing: 0px; display: inline; float: none;&quot;&gt;T/C&lt;/span&gt;" style="text;html=1;strokeColor=none;fillColor=none;align=center;verticalAlign=middle;whiteSpace=wrap;rounded=0;fontSize=28;labelBackgroundColor=none;" parent="1" vertex="1">
          <mxGeometry x="3180" y="-314.8699999999999" width="40" height="20" as="geometry" />
        </mxCell>
        <mxCell id="LpBiDxi0DtusZ-6YtQt1-111" value="" style="rounded=0;whiteSpace=wrap;html=1;labelBackgroundColor=none;strokeColor=#b46504;fontSize=16;fillColor=#fad7ac;" parent="1" vertex="1">
          <mxGeometry x="3150" y="-284.8699999999999" width="100" height="40" as="geometry" />
        </mxCell>
        <mxCell id="LpBiDxi0DtusZ-6YtQt1-112" value="" style="ellipse;whiteSpace=wrap;html=1;rounded=0;labelBackgroundColor=none;strokeColor=#666666;fontSize=16;fillColor=#f5f5f5;fontColor=#333333;" parent="1" vertex="1">
          <mxGeometry x="3190" y="-236.8699999999999" width="20" height="20" as="geometry" />
        </mxCell>
        <mxCell id="LpBiDxi0DtusZ-6YtQt1-113" value="" style="ellipse;whiteSpace=wrap;html=1;rounded=0;labelBackgroundColor=none;strokeColor=#666666;fontSize=16;fillColor=#f5f5f5;fontColor=#333333;" parent="1" vertex="1">
          <mxGeometry x="3190" y="-206.8699999999999" width="20" height="20" as="geometry" />
        </mxCell>
        <mxCell id="LpBiDxi0DtusZ-6YtQt1-114" value="" style="ellipse;whiteSpace=wrap;html=1;rounded=0;labelBackgroundColor=none;strokeColor=#666666;fontSize=16;fillColor=#f5f5f5;fontColor=#333333;" parent="1" vertex="1">
          <mxGeometry x="3190" y="-176.8699999999999" width="20" height="20" as="geometry" />
        </mxCell>
        <mxCell id="LpBiDxi0DtusZ-6YtQt1-115" value="" style="rounded=0;whiteSpace=wrap;html=1;labelBackgroundColor=none;strokeColor=#b46504;fontSize=16;fillColor=#fad7ac;" parent="1" vertex="1">
          <mxGeometry x="3150" y="-150.3699999999999" width="100" height="41" as="geometry" />
        </mxCell>
        <mxCell id="LpBiDxi0DtusZ-6YtQt1-116" style="edgeStyle=orthogonalEdgeStyle;rounded=1;orthogonalLoop=1;jettySize=auto;html=1;entryX=0.723;entryY=-0.029;entryDx=0;entryDy=0;fontSize=29;endArrow=block;endFill=1;strokeColor=#FF0000;strokeWidth=5;entryPerimeter=0;" parent="1" source="LpBiDxi0DtusZ-6YtQt1-117" target="LpBiDxi0DtusZ-6YtQt1-98" edge="1">
          <mxGeometry relative="1" as="geometry" />
        </mxCell>
        <mxCell id="LpBiDxi0DtusZ-6YtQt1-117" value="&lt;span style=&quot;font-size: 28px;&quot;&gt;Battery Charging&lt;/span&gt;" style="rounded=0;whiteSpace=wrap;html=1;fillColor=#f8cecc;strokeColor=#b85450;fontSize=28;" parent="1" vertex="1">
          <mxGeometry x="2951" y="-10.36999999999989" width="140" height="100" as="geometry" />
        </mxCell>
        <mxCell id="LpBiDxi0DtusZ-6YtQt1-118" value="&lt;font style=&quot;font-size: 28px;&quot;&gt;ISM Debug Radio&lt;/font&gt;" style="rounded=0;whiteSpace=wrap;html=1;fontSize=14;fillColor=#f5f5f5;strokeColor=#666666;fontColor=#333333;" parent="1" vertex="1">
          <mxGeometry x="2370" y="-324.8699999999999" width="120" height="160" as="geometry" />
        </mxCell>
        <mxCell id="LpBiDxi0DtusZ-6YtQt1-119" style="edgeStyle=orthogonalEdgeStyle;rounded=1;orthogonalLoop=1;jettySize=auto;html=1;fontSize=29;endArrow=block;endFill=1;strokeColor=#FF9933;strokeWidth=5;" parent="1" source="LpBiDxi0DtusZ-6YtQt1-127" edge="1">
          <mxGeometry relative="1" as="geometry">
            <mxPoint x="2490" y="-24.86999999999989" as="targetPoint" />
            <Array as="points">
              <mxPoint x="2531" y="-24.86999999999989" />
              <mxPoint x="2531" y="-24.86999999999989" />
            </Array>
          </mxGeometry>
        </mxCell>
        <mxCell id="LpBiDxi0DtusZ-6YtQt1-120" style="edgeStyle=orthogonalEdgeStyle;rounded=1;orthogonalLoop=1;jettySize=auto;html=1;entryX=1;entryY=0.862;entryDx=0;entryDy=0;entryPerimeter=0;fontSize=29;endArrow=block;endFill=1;strokeColor=#007FFF;strokeWidth=4;" parent="1" source="LpBiDxi0DtusZ-6YtQt1-127" target="LpBiDxi0DtusZ-6YtQt1-118" edge="1">
          <mxGeometry relative="1" as="geometry">
            <Array as="points">
              <mxPoint x="2526" y="-54.86999999999989" />
              <mxPoint x="2526" y="-186.8699999999999" />
            </Array>
          </mxGeometry>
        </mxCell>
        <mxCell id="LpBiDxi0DtusZ-6YtQt1-121" style="edgeStyle=orthogonalEdgeStyle;rounded=1;orthogonalLoop=1;jettySize=auto;html=1;entryX=0.001;entryY=0.483;entryDx=0;entryDy=0;entryPerimeter=0;fontSize=29;endArrow=block;endFill=1;strokeColor=#007FFF;strokeWidth=4;" parent="1" source="LpBiDxi0DtusZ-6YtQt1-127" target="LpBiDxi0DtusZ-6YtQt1-106" edge="1">
          <mxGeometry relative="1" as="geometry" />
        </mxCell>
        <mxCell id="LpBiDxi0DtusZ-6YtQt1-122" style="edgeStyle=orthogonalEdgeStyle;rounded=1;orthogonalLoop=1;jettySize=auto;html=1;entryX=0.257;entryY=0.998;entryDx=0;entryDy=0;fontSize=29;endArrow=block;endFill=1;strokeColor=#009900;strokeWidth=5;entryPerimeter=0;exitX=0.549;exitY=-0.007;exitDx=0;exitDy=0;exitPerimeter=0;" parent="1" source="LpBiDxi0DtusZ-6YtQt1-127" target="LpBiDxi0DtusZ-6YtQt1-99" edge="1">
          <mxGeometry relative="1" as="geometry">
            <Array as="points">
              <mxPoint x="2630.04" y="-100.86999999999989" />
              <mxPoint x="2610.04" y="-100.86999999999989" />
            </Array>
          </mxGeometry>
        </mxCell>
        <mxCell id="LpBiDxi0DtusZ-6YtQt1-123" style="edgeStyle=orthogonalEdgeStyle;rounded=1;orthogonalLoop=1;jettySize=auto;html=1;fontSize=29;endArrow=block;endFill=1;strokeColor=#009900;strokeWidth=5;" parent="1" edge="1">
          <mxGeometry relative="1" as="geometry">
            <mxPoint x="2631.04" y="-64.86999999999989" as="sourcePoint" />
            <mxPoint x="2561" y="-214.8699999999999" as="targetPoint" />
            <Array as="points">
              <mxPoint x="2631" y="-94.86999999999989" />
              <mxPoint x="2561" y="-94.86999999999989" />
              <mxPoint x="2561" y="-214.8699999999999" />
            </Array>
          </mxGeometry>
        </mxCell>
        <mxCell id="LpBiDxi0DtusZ-6YtQt1-124" style="edgeStyle=orthogonalEdgeStyle;rounded=1;orthogonalLoop=1;jettySize=auto;html=1;fontSize=29;endArrow=block;endFill=1;strokeColor=#009900;strokeWidth=4;" parent="1" source="LpBiDxi0DtusZ-6YtQt1-127" edge="1">
          <mxGeometry relative="1" as="geometry">
            <mxPoint x="2908.9999999999995" y="-124.86999999999989" as="targetPoint" />
            <Array as="points">
              <mxPoint x="2631" y="-84.86999999999989" />
              <mxPoint x="2909" y="-84.86999999999989" />
            </Array>
          </mxGeometry>
        </mxCell>
        <mxCell id="LpBiDxi0DtusZ-6YtQt1-126" style="edgeStyle=orthogonalEdgeStyle;rounded=1;orthogonalLoop=1;jettySize=auto;html=1;fontSize=28;endArrow=block;endFill=1;strokeColor=#00994D;strokeWidth=4;" parent="1" target="LpBiDxi0DtusZ-6YtQt1-142" edge="1">
          <mxGeometry relative="1" as="geometry">
            <Array as="points">
              <mxPoint x="2631" y="-124.86999999999989" />
            </Array>
            <mxPoint x="2631.04" y="-64.86999999999989" as="sourcePoint" />
          </mxGeometry>
        </mxCell>
        <mxCell id="LpBiDxi0DtusZ-6YtQt1-127" value="Feather M4" style="rounded=0;whiteSpace=wrap;html=1;fillColor=#d5e8d4;strokeColor=#82b366;fontSize=28;" parent="1" vertex="1">
          <mxGeometry x="2541" y="-61.86999999999989" width="163.04" height="124.5" as="geometry" />
        </mxCell>
        <mxCell id="LpBiDxi0DtusZ-6YtQt1-130" value="" style="endArrow=classic;html=1;rounded=1;fontSize=29;strokeColor=#009900;strokeWidth=4;" parent="1" edge="1">
          <mxGeometry width="50" height="50" relative="1" as="geometry">
            <mxPoint x="2866.25" y="-384.8699999999999" as="sourcePoint" />
            <mxPoint x="2909.75" y="-384.8699999999999" as="targetPoint" />
          </mxGeometry>
        </mxCell>
        <mxCell id="LpBiDxi0DtusZ-6YtQt1-131" value="SPI" style="text;html=1;align=center;verticalAlign=middle;resizable=0;points=[];autosize=1;strokeColor=none;fillColor=none;fontSize=28;" parent="1" vertex="1">
          <mxGeometry x="2773" y="-385.8699999999999" width="70" height="50" as="geometry" />
        </mxCell>
        <mxCell id="LpBiDxi0DtusZ-6YtQt1-132" value="" style="endArrow=classic;html=1;rounded=1;fontSize=29;strokeColor=#007FFF;strokeWidth=4;exitX=-0.022;exitY=-0.04;exitDx=0;exitDy=0;exitPerimeter=0;entryX=0.912;entryY=-0.06;entryDx=0;entryDy=0;entryPerimeter=0;" parent="1" source="LpBiDxi0DtusZ-6YtQt1-131" target="LpBiDxi0DtusZ-6YtQt1-131" edge="1">
          <mxGeometry width="50" height="50" relative="1" as="geometry">
            <mxPoint x="2786" y="-344.8699999999999" as="sourcePoint" />
            <mxPoint x="2836" y="-394.8699999999999" as="targetPoint" />
          </mxGeometry>
        </mxCell>
        <mxCell id="LpBiDxi0DtusZ-6YtQt1-133" value="I2C" style="text;html=1;align=center;verticalAlign=middle;resizable=0;points=[];autosize=1;strokeColor=none;fillColor=none;fontSize=28;" parent="1" vertex="1">
          <mxGeometry x="2850" y="-385.8699999999999" width="70" height="50" as="geometry" />
        </mxCell>
        <mxCell id="LpBiDxi0DtusZ-6YtQt1-134" value="" style="endArrow=classic;html=1;rounded=1;fontSize=29;strokeColor=#FF8000;strokeWidth=4;" parent="1" edge="1">
          <mxGeometry width="50" height="50" relative="1" as="geometry">
            <mxPoint x="2937" y="-387.8699999999999" as="sourcePoint" />
            <mxPoint x="2992" y="-388.8699999999999" as="targetPoint" />
          </mxGeometry>
        </mxCell>
        <mxCell id="LpBiDxi0DtusZ-6YtQt1-135" value="UART" style="text;html=1;align=center;verticalAlign=middle;resizable=0;points=[];autosize=1;strokeColor=none;fillColor=none;fontSize=28;" parent="1" vertex="1">
          <mxGeometry x="2919" y="-387.8699999999999" width="100" height="50" as="geometry" />
        </mxCell>
        <mxCell id="LpBiDxi0DtusZ-6YtQt1-136" value="" style="endArrow=classic;html=1;rounded=1;fontSize=29;strokeColor=#000000;strokeWidth=4;" parent="1" edge="1">
          <mxGeometry width="50" height="50" relative="1" as="geometry">
            <mxPoint x="3197" y="-385.8699999999999" as="sourcePoint" />
            <mxPoint x="3268.0000000000005" y="-387.8699999999999" as="targetPoint" />
          </mxGeometry>
        </mxCell>
        <mxCell id="LpBiDxi0DtusZ-6YtQt1-137" value="GPIO" style="text;html=1;align=center;verticalAlign=middle;resizable=0;points=[];autosize=1;strokeColor=none;fillColor=none;fontSize=28;" parent="1" vertex="1">
          <mxGeometry x="3190" y="-387.8699999999999" width="90" height="50" as="geometry" />
        </mxCell>
        <mxCell id="LpBiDxi0DtusZ-6YtQt1-138" value="" style="endArrow=classic;html=1;rounded=1;fontSize=29;strokeColor=#CC00CC;strokeWidth=4;" parent="1" edge="1">
          <mxGeometry width="50" height="50" relative="1" as="geometry">
            <mxPoint x="3026" y="-388.8699999999999" as="sourcePoint" />
            <mxPoint x="3083.0000000000005" y="-389.8699999999999" as="targetPoint" />
          </mxGeometry>
        </mxCell>
        <mxCell id="LpBiDxi0DtusZ-6YtQt1-139" value="RF" style="text;html=1;align=center;verticalAlign=middle;resizable=0;points=[];autosize=1;strokeColor=none;fillColor=none;fontSize=28;" parent="1" vertex="1">
          <mxGeometry x="3023.8199999999997" y="-389.8699999999999" width="60" height="50" as="geometry" />
        </mxCell>
        <mxCell id="LpBiDxi0DtusZ-6YtQt1-140" value="" style="endArrow=classic;html=1;rounded=1;fontSize=29;strokeColor=#FF0000;strokeWidth=4;" parent="1" edge="1">
          <mxGeometry width="50" height="50" relative="1" as="geometry">
            <mxPoint x="3108.0000000000005" y="-386.8699999999999" as="sourcePoint" />
            <mxPoint x="3173.9999999999995" y="-387.8699999999999" as="targetPoint" />
          </mxGeometry>
        </mxCell>
        <mxCell id="LpBiDxi0DtusZ-6YtQt1-141" value="Power" style="text;html=1;align=center;verticalAlign=middle;resizable=0;points=[];autosize=1;strokeColor=none;fillColor=none;fontSize=28;" parent="1" vertex="1">
          <mxGeometry x="3092" y="-387.8699999999999" width="100" height="50" as="geometry" />
        </mxCell>
        <mxCell id="LpBiDxi0DtusZ-6YtQt1-142" value="Pressure sensors" style="rounded=0;whiteSpace=wrap;html=1;fillColor=#f5f5f5;strokeColor=#666666;fontSize=28;fontColor=#333333;" parent="1" vertex="1">
          <mxGeometry x="2761" y="-194.8699999999999" width="120" height="80" as="geometry" />
        </mxCell>
        <mxCell id="LpBiDxi0DtusZ-6YtQt1-143" value="Spectrometer subsystem" style="rounded=0;whiteSpace=wrap;html=1;labelBackgroundColor=none;fontSize=30;fillColor=#e1d5e7;strokeColor=#9673a6;" parent="1" vertex="1">
          <mxGeometry x="3104.04" y="-61.86999999999989" width="190" height="167" as="geometry" />
        </mxCell>
        <mxCell id="LpBiDxi0DtusZ-6YtQt1-144" style="edgeStyle=orthogonalEdgeStyle;rounded=1;orthogonalLoop=1;jettySize=auto;html=1;exitX=1.007;exitY=0.098;exitDx=0;exitDy=0;fontSize=30;endArrow=block;endFill=1;strokeColor=#FF9933;strokeWidth=5;exitPerimeter=0;" parent="1" source="LpBiDxi0DtusZ-6YtQt1-127" edge="1">
          <mxGeometry relative="1" as="geometry">
            <mxPoint x="3114.04" y="-49.86999999999989" as="targetPoint" />
          </mxGeometry>
        </mxCell>
        <mxCell id="LpBiDxi0DtusZ-6YtQt1-191" value="" style="rounded=0;whiteSpace=wrap;html=1;fillStyle=solid;dashed=1;" parent="1" vertex="1">
          <mxGeometry x="3935.96" y="1525" width="590" height="430" as="geometry" />
        </mxCell>
        <mxCell id="LpBiDxi0DtusZ-6YtQt1-193" value="9 axis IMU" style="rounded=0;whiteSpace=wrap;html=1;fillColor=#f5f5f5;strokeColor=#666666;fontSize=28;fontColor=#333333;" parent="1" vertex="1">
          <mxGeometry x="3996.96" y="1655" width="150" height="54.5" as="geometry" />
        </mxCell>
        <mxCell id="LpBiDxi0DtusZ-6YtQt1-194" style="edgeStyle=orthogonalEdgeStyle;rounded=1;orthogonalLoop=1;jettySize=auto;html=1;fontSize=29;endArrow=block;endFill=1;strokeColor=#000000;strokeWidth=5;entryX=0.003;entryY=0.559;entryDx=0;entryDy=0;entryPerimeter=0;" parent="1" source="LpBiDxi0DtusZ-6YtQt1-195" target="LpBiDxi0DtusZ-6YtQt1-203" edge="1">
          <mxGeometry relative="1" as="geometry">
            <mxPoint x="4546.96" y="1675" as="targetPoint" />
          </mxGeometry>
        </mxCell>
        <mxCell id="LpBiDxi0DtusZ-6YtQt1-195" value="Thermocouple to digital converters" style="rounded=0;whiteSpace=wrap;html=1;fillColor=#fff2cc;strokeColor=#d6b656;fontSize=28;" parent="1" vertex="1">
          <mxGeometry x="4316.96" y="1557" width="183.04" height="110" as="geometry" />
        </mxCell>
        <mxCell id="LpBiDxi0DtusZ-6YtQt1-196" value="High-g accelerometer" style="rounded=0;whiteSpace=wrap;html=1;fillColor=#f5f5f5;strokeColor=#666666;fontSize=28;fontColor=#333333;" parent="1" vertex="1">
          <mxGeometry x="3966.96" y="1585" width="290" height="50" as="geometry" />
        </mxCell>
        <mxCell id="LpBiDxi0DtusZ-6YtQt1-197" style="edgeStyle=orthogonalEdgeStyle;rounded=1;orthogonalLoop=1;jettySize=auto;html=1;fontSize=29;endArrow=block;endFill=1;strokeColor=#CC00CC;strokeWidth=4;" parent="1" source="LpBiDxi0DtusZ-6YtQt1-198" target="LpBiDxi0DtusZ-6YtQt1-199" edge="1">
          <mxGeometry relative="1" as="geometry" />
        </mxCell>
        <mxCell id="LpBiDxi0DtusZ-6YtQt1-198" value="Iridium Mmodem" style="rounded=0;whiteSpace=wrap;html=1;fontSize=28;fillColor=#bac8d3;strokeColor=#23445d;" parent="1" vertex="1">
          <mxGeometry x="3795.96" y="1719" width="120" height="126" as="geometry" />
        </mxCell>
        <mxCell id="LpBiDxi0DtusZ-6YtQt1-199" value="Iridium antenna" style="rounded=0;whiteSpace=wrap;html=1;fontSize=28;fillColor=#bac8d3;strokeColor=#23445d;" parent="1" vertex="1">
          <mxGeometry x="3795.96" y="1885" width="120" height="70" as="geometry" />
        </mxCell>
        <mxCell id="LpBiDxi0DtusZ-6YtQt1-200" value="SD storage" style="rounded=0;whiteSpace=wrap;html=1;fontSize=28;fillColor=#f5f5f5;strokeColor=#666666;fontColor=#333333;" parent="1" vertex="1">
          <mxGeometry x="4175.96" y="1867" width="170" height="72.5" as="geometry" />
        </mxCell>
        <mxCell id="LpBiDxi0DtusZ-6YtQt1-201" value="KRUPS Flight Computer PCB" style="text;html=1;strokeColor=none;fillColor=none;align=center;verticalAlign=middle;whiteSpace=wrap;rounded=0;fontSize=28;" parent="1" vertex="1">
          <mxGeometry x="3935.96" y="1540.75" width="380" height="20" as="geometry" />
        </mxCell>
        <mxCell id="LpBiDxi0DtusZ-6YtQt1-202" value="KREPE-2 Capsule Components" style="text;html=1;strokeColor=none;fillColor=none;align=center;verticalAlign=middle;whiteSpace=wrap;rounded=0;fontSize=28;" parent="1" vertex="1">
          <mxGeometry x="3780" y="1475" width="411.96" height="20" as="geometry" />
        </mxCell>
        <mxCell id="LpBiDxi0DtusZ-6YtQt1-203" value="" style="rounded=0;whiteSpace=wrap;html=1;strokeColor=#d6b656;fontSize=14;fillColor=#fff2cc;" parent="1" vertex="1">
          <mxGeometry x="4565.96" y="1525" width="154.04" height="72" as="geometry" />
        </mxCell>
        <mxCell id="LpBiDxi0DtusZ-6YtQt1-204" value="&lt;span style=&quot;color: rgb(0, 0, 0); font-family: helvetica; font-size: 28px; font-style: normal; font-weight: 400; letter-spacing: normal; text-align: center; text-indent: 0px; text-transform: none; word-spacing: 0px; display: inline; float: none;&quot;&gt;6 TCs&lt;/span&gt;" style="text;html=1;strokeColor=none;fillColor=none;align=center;verticalAlign=middle;whiteSpace=wrap;rounded=0;fontSize=28;labelBackgroundColor=none;" parent="1" vertex="1">
          <mxGeometry x="4600.96" y="1557" width="84.04" height="20" as="geometry" />
        </mxCell>
        <mxCell id="LpBiDxi0DtusZ-6YtQt1-211" value="&lt;span style=&quot;font-size: 28px;&quot;&gt;Battery charging&lt;/span&gt;" style="rounded=0;whiteSpace=wrap;html=1;fillColor=#f8cecc;strokeColor=#b85450;fontSize=28;" parent="1" vertex="1">
          <mxGeometry x="4376.96" y="1839.5" width="140" height="100" as="geometry" />
        </mxCell>
        <mxCell id="LpBiDxi0DtusZ-6YtQt1-212" value="&lt;font style=&quot;font-size: 28px;&quot;&gt;Debug radio&lt;/font&gt;" style="rounded=0;whiteSpace=wrap;html=1;fontSize=14;fillColor=#f5f5f5;strokeColor=#666666;fontColor=#333333;" parent="1" vertex="1">
          <mxGeometry x="3795.96" y="1525" width="120" height="160" as="geometry" />
        </mxCell>
        <mxCell id="LpBiDxi0DtusZ-6YtQt1-213" style="edgeStyle=orthogonalEdgeStyle;rounded=1;orthogonalLoop=1;jettySize=auto;html=1;fontSize=29;endArrow=block;endFill=1;strokeColor=#FF9933;strokeWidth=5;" parent="1" source="LpBiDxi0DtusZ-6YtQt1-220" edge="1">
          <mxGeometry relative="1" as="geometry">
            <mxPoint x="3915.96" y="1825" as="targetPoint" />
            <Array as="points">
              <mxPoint x="3956.96" y="1825" />
              <mxPoint x="3956.96" y="1825" />
            </Array>
          </mxGeometry>
        </mxCell>
        <mxCell id="LpBiDxi0DtusZ-6YtQt1-214" style="edgeStyle=orthogonalEdgeStyle;rounded=1;orthogonalLoop=1;jettySize=auto;html=1;entryX=1;entryY=0.862;entryDx=0;entryDy=0;entryPerimeter=0;fontSize=29;endArrow=block;endFill=1;strokeColor=#007FFF;strokeWidth=4;" parent="1" source="LpBiDxi0DtusZ-6YtQt1-220" target="LpBiDxi0DtusZ-6YtQt1-212" edge="1">
          <mxGeometry relative="1" as="geometry">
            <Array as="points">
              <mxPoint x="3951.96" y="1795" />
              <mxPoint x="3951.96" y="1663" />
            </Array>
          </mxGeometry>
        </mxCell>
        <mxCell id="LpBiDxi0DtusZ-6YtQt1-215" style="edgeStyle=orthogonalEdgeStyle;rounded=1;orthogonalLoop=1;jettySize=auto;html=1;entryX=0.001;entryY=0.483;entryDx=0;entryDy=0;entryPerimeter=0;fontSize=29;endArrow=block;endFill=1;strokeColor=#007FFF;strokeWidth=4;" parent="1" source="LpBiDxi0DtusZ-6YtQt1-220" target="LpBiDxi0DtusZ-6YtQt1-200" edge="1">
          <mxGeometry relative="1" as="geometry" />
        </mxCell>
        <mxCell id="LpBiDxi0DtusZ-6YtQt1-216" style="edgeStyle=orthogonalEdgeStyle;rounded=1;orthogonalLoop=1;jettySize=auto;html=1;entryX=0.257;entryY=0.998;entryDx=0;entryDy=0;fontSize=29;endArrow=block;endFill=1;strokeColor=#009900;strokeWidth=5;entryPerimeter=0;exitX=0.549;exitY=-0.007;exitDx=0;exitDy=0;exitPerimeter=0;" parent="1" source="LpBiDxi0DtusZ-6YtQt1-220" target="LpBiDxi0DtusZ-6YtQt1-193" edge="1">
          <mxGeometry relative="1" as="geometry">
            <Array as="points">
              <mxPoint x="4056" y="1749" />
              <mxPoint x="4036" y="1749" />
            </Array>
          </mxGeometry>
        </mxCell>
        <mxCell id="LpBiDxi0DtusZ-6YtQt1-217" style="edgeStyle=orthogonalEdgeStyle;rounded=1;orthogonalLoop=1;jettySize=auto;html=1;fontSize=29;endArrow=block;endFill=1;strokeColor=#009900;strokeWidth=5;" parent="1" edge="1">
          <mxGeometry relative="1" as="geometry">
            <mxPoint x="4057" y="1785" as="sourcePoint" />
            <mxPoint x="3986.96" y="1635" as="targetPoint" />
            <Array as="points">
              <mxPoint x="4056.96" y="1755" />
              <mxPoint x="3986.96" y="1755" />
              <mxPoint x="3986.96" y="1635" />
            </Array>
          </mxGeometry>
        </mxCell>
        <mxCell id="LpBiDxi0DtusZ-6YtQt1-218" style="edgeStyle=orthogonalEdgeStyle;rounded=1;orthogonalLoop=1;jettySize=auto;html=1;fontSize=29;endArrow=block;endFill=1;strokeColor=#009900;strokeWidth=4;" parent="1" source="LpBiDxi0DtusZ-6YtQt1-220" target="LpBiDxi0DtusZ-6YtQt1-195" edge="1">
          <mxGeometry relative="1" as="geometry">
            <mxPoint x="4334.959999999999" y="1725" as="targetPoint" />
            <Array as="points">
              <mxPoint x="4057" y="1765" />
              <mxPoint x="4335" y="1765" />
            </Array>
          </mxGeometry>
        </mxCell>
        <mxCell id="LpBiDxi0DtusZ-6YtQt1-219" style="edgeStyle=orthogonalEdgeStyle;rounded=1;orthogonalLoop=1;jettySize=auto;html=1;fontSize=28;endArrow=block;endFill=1;strokeColor=#00994D;strokeWidth=4;" parent="1" target="LpBiDxi0DtusZ-6YtQt1-233" edge="1">
          <mxGeometry relative="1" as="geometry">
            <Array as="points">
              <mxPoint x="4056.96" y="1725" />
            </Array>
            <mxPoint x="4057" y="1785" as="sourcePoint" />
          </mxGeometry>
        </mxCell>
        <mxCell id="vHll0Na0EB-mI91eLR99-2" style="edgeStyle=orthogonalEdgeStyle;rounded=0;orthogonalLoop=1;jettySize=auto;html=1;fillColor=#fff2cc;strokeColor=#FF9933;strokeWidth=5;endArrow=none;endFill=0;startArrow=block;startFill=1;" parent="1" source="LpBiDxi0DtusZ-6YtQt1-220" target="vHll0Na0EB-mI91eLR99-1" edge="1">
          <mxGeometry relative="1" as="geometry">
            <Array as="points">
              <mxPoint x="4530" y="1787" />
              <mxPoint x="4530" y="1647" />
            </Array>
          </mxGeometry>
        </mxCell>
        <mxCell id="4M-4LpM4qEvd3P7LR1Mv-8" style="edgeStyle=orthogonalEdgeStyle;rounded=0;orthogonalLoop=1;jettySize=auto;html=1;fillColor=#ffe6cc;strokeColor=#FF9933;strokeWidth=5;endArrow=block;endFill=1;startArrow=block;startFill=1;entryX=0;entryY=0.5;entryDx=0;entryDy=0;" parent="1" source="LpBiDxi0DtusZ-6YtQt1-220" target="4M-4LpM4qEvd3P7LR1Mv-7" edge="1">
          <mxGeometry relative="1" as="geometry">
            <mxPoint x="4590" y="1777" as="targetPoint" />
            <Array as="points">
              <mxPoint x="4240" y="1807" />
              <mxPoint x="4240" y="1807" />
            </Array>
          </mxGeometry>
        </mxCell>
        <mxCell id="LpBiDxi0DtusZ-6YtQt1-220" value="Feather M4" style="rounded=0;whiteSpace=wrap;html=1;fillColor=#f5f5f5;fontSize=28;fontColor=#333333;strokeColor=#666666;" parent="1" vertex="1">
          <mxGeometry x="3966.96" y="1787" width="163.04" height="125.5" as="geometry" />
        </mxCell>
        <mxCell id="LpBiDxi0DtusZ-6YtQt1-221" value="" style="endArrow=block;html=1;rounded=1;fontSize=29;strokeColor=#009900;strokeWidth=4;endFill=1;" parent="1" edge="1">
          <mxGeometry width="50" height="50" relative="1" as="geometry">
            <mxPoint x="4292.21" y="1465" as="sourcePoint" />
            <mxPoint x="4335.71" y="1465" as="targetPoint" />
          </mxGeometry>
        </mxCell>
        <mxCell id="LpBiDxi0DtusZ-6YtQt1-222" value="SPI" style="text;html=1;align=center;verticalAlign=middle;resizable=0;points=[];autosize=1;strokeColor=none;fillColor=none;fontSize=28;" parent="1" vertex="1">
          <mxGeometry x="4198.96" y="1464" width="70" height="50" as="geometry" />
        </mxCell>
        <mxCell id="LpBiDxi0DtusZ-6YtQt1-223" value="" style="endArrow=block;html=1;rounded=1;fontSize=29;strokeColor=#007FFF;strokeWidth=4;exitX=-0.022;exitY=-0.04;exitDx=0;exitDy=0;exitPerimeter=0;entryX=0.912;entryY=-0.06;entryDx=0;entryDy=0;entryPerimeter=0;endFill=1;" parent="1" source="LpBiDxi0DtusZ-6YtQt1-222" target="LpBiDxi0DtusZ-6YtQt1-222" edge="1">
          <mxGeometry width="50" height="50" relative="1" as="geometry">
            <mxPoint x="4211.96" y="1505" as="sourcePoint" />
            <mxPoint x="4261.96" y="1455" as="targetPoint" />
          </mxGeometry>
        </mxCell>
        <mxCell id="LpBiDxi0DtusZ-6YtQt1-224" value="I2C" style="text;html=1;align=center;verticalAlign=middle;resizable=0;points=[];autosize=1;strokeColor=none;fillColor=none;fontSize=28;" parent="1" vertex="1">
          <mxGeometry x="4275.96" y="1464" width="70" height="50" as="geometry" />
        </mxCell>
        <mxCell id="LpBiDxi0DtusZ-6YtQt1-225" value="" style="endArrow=block;html=1;rounded=1;fontSize=29;strokeColor=#FF8000;strokeWidth=4;endFill=1;" parent="1" edge="1">
          <mxGeometry width="50" height="50" relative="1" as="geometry">
            <mxPoint x="4362.96" y="1462" as="sourcePoint" />
            <mxPoint x="4417.96" y="1461" as="targetPoint" />
          </mxGeometry>
        </mxCell>
        <mxCell id="LpBiDxi0DtusZ-6YtQt1-226" value="UART" style="text;html=1;align=center;verticalAlign=middle;resizable=0;points=[];autosize=1;strokeColor=none;fillColor=none;fontSize=28;" parent="1" vertex="1">
          <mxGeometry x="4344.96" y="1462" width="100" height="50" as="geometry" />
        </mxCell>
        <mxCell id="LpBiDxi0DtusZ-6YtQt1-227" value="" style="endArrow=block;html=1;rounded=1;fontSize=29;strokeColor=#000000;strokeWidth=4;endFill=1;" parent="1" edge="1">
          <mxGeometry width="50" height="50" relative="1" as="geometry">
            <mxPoint x="4622.96" y="1463.999999999999" as="sourcePoint" />
            <mxPoint x="4693.960000000001" y="1462" as="targetPoint" />
          </mxGeometry>
        </mxCell>
        <mxCell id="LpBiDxi0DtusZ-6YtQt1-228" value="TC" style="text;html=1;align=center;verticalAlign=middle;resizable=0;points=[];autosize=1;strokeColor=none;fillColor=none;fontSize=28;" parent="1" vertex="1">
          <mxGeometry x="4630.96" y="1462" width="60" height="50" as="geometry" />
        </mxCell>
        <mxCell id="LpBiDxi0DtusZ-6YtQt1-229" value="" style="endArrow=block;html=1;rounded=1;fontSize=29;strokeColor=#CC00CC;strokeWidth=4;endFill=1;" parent="1" edge="1">
          <mxGeometry width="50" height="50" relative="1" as="geometry">
            <mxPoint x="4451.96" y="1461" as="sourcePoint" />
            <mxPoint x="4508.960000000002" y="1460" as="targetPoint" />
          </mxGeometry>
        </mxCell>
        <mxCell id="LpBiDxi0DtusZ-6YtQt1-230" value="RF" style="text;html=1;align=center;verticalAlign=middle;resizable=0;points=[];autosize=1;strokeColor=none;fillColor=none;fontSize=28;" parent="1" vertex="1">
          <mxGeometry x="4449.78" y="1460" width="60" height="50" as="geometry" />
        </mxCell>
        <mxCell id="LpBiDxi0DtusZ-6YtQt1-231" value="" style="endArrow=block;html=1;rounded=1;fontSize=29;strokeColor=#FF0000;strokeWidth=4;endFill=1;" parent="1" edge="1">
          <mxGeometry width="50" height="50" relative="1" as="geometry">
            <mxPoint x="4533.960000000002" y="1463" as="sourcePoint" />
            <mxPoint x="4599.959999999999" y="1462" as="targetPoint" />
          </mxGeometry>
        </mxCell>
        <mxCell id="LpBiDxi0DtusZ-6YtQt1-232" value="Power" style="text;html=1;align=center;verticalAlign=middle;resizable=0;points=[];autosize=1;strokeColor=none;fillColor=none;fontSize=28;" parent="1" vertex="1">
          <mxGeometry x="4517.96" y="1462" width="100" height="50" as="geometry" />
        </mxCell>
        <mxCell id="LpBiDxi0DtusZ-6YtQt1-233" value="Pressure sensors" style="rounded=0;whiteSpace=wrap;html=1;fillColor=#f5f5f5;strokeColor=#666666;fontSize=28;fontColor=#333333;" parent="1" vertex="1">
          <mxGeometry x="4186.96" y="1655" width="120" height="80" as="geometry" />
        </mxCell>
        <mxCell id="LpBiDxi0DtusZ-6YtQt1-234" value="Spectrometer subsystem" style="rounded=0;whiteSpace=wrap;html=1;labelBackgroundColor=none;fontSize=30;fillColor=#e1d5e7;strokeColor=#9673a6;" parent="1" vertex="1">
          <mxGeometry x="4530" y="1869" width="190" height="98" as="geometry" />
        </mxCell>
        <mxCell id="LpBiDxi0DtusZ-6YtQt1-235" style="edgeStyle=orthogonalEdgeStyle;rounded=1;orthogonalLoop=1;jettySize=auto;html=1;fontSize=30;endArrow=block;endFill=1;strokeColor=#FF9933;strokeWidth=5;startArrow=block;startFill=1;" parent="1" edge="1">
          <mxGeometry relative="1" as="geometry">
            <mxPoint x="4550" y="1869" as="targetPoint" />
            <mxPoint x="4131" y="1827" as="sourcePoint" />
            <Array as="points">
              <mxPoint x="4550" y="1827" />
              <mxPoint x="4550" y="1869" />
            </Array>
          </mxGeometry>
        </mxCell>
        <mxCell id="vHll0Na0EB-mI91eLR99-1" value="GPS" style="rounded=0;whiteSpace=wrap;html=1;fontSize=28;fillColor=#bac8d3;strokeColor=#23445d;" parent="1" vertex="1">
          <mxGeometry x="4555.96" y="1625" width="164.04" height="32" as="geometry" />
        </mxCell>
        <mxCell id="vHll0Na0EB-mI91eLR99-3" value="GPS antenna" style="rounded=0;whiteSpace=wrap;html=1;fontSize=28;fillColor=#bac8d3;strokeColor=#23445d;" parent="1" vertex="1">
          <mxGeometry x="4555.96" y="1680" width="164.04" height="60" as="geometry" />
        </mxCell>
        <mxCell id="vHll0Na0EB-mI91eLR99-5" style="edgeStyle=orthogonalEdgeStyle;rounded=1;orthogonalLoop=1;jettySize=auto;html=1;fontSize=29;endArrow=block;endFill=1;strokeColor=#CC00CC;strokeWidth=4;entryX=0.413;entryY=-0.007;entryDx=0;entryDy=0;entryPerimeter=0;" parent="1" target="vHll0Na0EB-mI91eLR99-3" edge="1">
          <mxGeometry relative="1" as="geometry">
            <mxPoint x="4624" y="1657" as="sourcePoint" />
            <mxPoint x="4624" y="1677" as="targetPoint" />
          </mxGeometry>
        </mxCell>
        <mxCell id="X1lBy5AKCkMjXvbI9ENQ-1" value="&lt;font style=&quot;font-size: 24px;&quot;&gt;Boundary Layer&lt;/font&gt;" style="rounded=0;whiteSpace=wrap;html=1;fillColor=#f8cecc;gradientColor=#ea6b66;strokeColor=none;" parent="1" vertex="1">
          <mxGeometry x="5180" y="-581.4899999999999" width="450" height="60" as="geometry" />
        </mxCell>
        <mxCell id="X1lBy5AKCkMjXvbI9ENQ-2" value="TPS (1&quot;-1.5&quot;)" style="rounded=0;whiteSpace=wrap;html=1;fontSize=24;strokeColor=none;fillColor=#ffe6cc;" parent="1" vertex="1">
          <mxGeometry x="5180" y="-521.4899999999999" width="200" height="110" as="geometry" />
        </mxCell>
        <mxCell id="X1lBy5AKCkMjXvbI9ENQ-3" value="" style="rounded=0;whiteSpace=wrap;html=1;fontSize=24;strokeColor=none;fillColor=#ffe6cc;" parent="1" vertex="1">
          <mxGeometry x="5400" y="-521.4899999999999" width="230" height="110" as="geometry" />
        </mxCell>
        <mxCell id="X1lBy5AKCkMjXvbI9ENQ-4" value="" style="endArrow=classic;html=1;rounded=0;fontSize=24;entryX=0;entryY=0.5;entryDx=0;entryDy=0;exitX=0.174;exitY=0.4;exitDx=0;exitDy=0;exitPerimeter=0;strokeWidth=4;fillColor=#f5f5f5;strokeColor=#4D4D4D;" parent="1" edge="1">
          <mxGeometry width="50" height="50" relative="1" as="geometry">
            <mxPoint x="5446.02" y="-470.48999999999967" as="sourcePoint" />
            <mxPoint x="5406" y="-460.48999999999967" as="targetPoint" />
          </mxGeometry>
        </mxCell>
        <mxCell id="X1lBy5AKCkMjXvbI9ENQ-5" value="1/16&quot; dia. hole" style="text;html=1;align=center;verticalAlign=middle;whiteSpace=wrap;rounded=0;fontSize=24;fontColor=#000000;" parent="1" vertex="1">
          <mxGeometry x="5440" y="-486.4899999999999" width="170" height="30" as="geometry" />
        </mxCell>
        <mxCell id="X1lBy5AKCkMjXvbI9ENQ-6" value="Structure&amp;nbsp; &amp;nbsp; &amp;nbsp; &amp;nbsp; &amp;nbsp; &amp;nbsp; &amp;nbsp; &amp;nbsp; (nylon or Ultem)" style="rounded=0;whiteSpace=wrap;html=1;fontSize=24;fillColor=#eeeeee;strokeColor=none;" parent="1" vertex="1">
          <mxGeometry x="5180" y="-411.4899999999999" width="450" height="30" as="geometry" />
        </mxCell>
        <mxCell id="X1lBy5AKCkMjXvbI9ENQ-8" value="" style="curved=1;endArrow=none;html=1;rounded=1;strokeColor=#6c8ebf;strokeWidth=10;fontSize=24;fontColor=#000000;fillColor=#dae8fc;shape=link;endFill=0;entryX=0.467;entryY=0;entryDx=0;entryDy=0;entryPerimeter=0;targetPerimeterSpacing=-2;sourcePerimeterSpacing=-5;gradientColor=#7ea6e0;" parent="1" target="X1lBy5AKCkMjXvbI9ENQ-6" edge="1">
          <mxGeometry width="50" height="50" relative="1" as="geometry">
            <mxPoint x="5610" y="-311.4899999999999" as="sourcePoint" />
            <mxPoint x="5390" y="-351.4899999999999" as="targetPoint" />
            <Array as="points">
              <mxPoint x="5430" y="-311.4899999999999" />
              <mxPoint x="5400" y="-331.4899999999999" />
              <mxPoint x="5390" y="-351.4899999999999" />
            </Array>
          </mxGeometry>
        </mxCell>
        <mxCell id="X1lBy5AKCkMjXvbI9ENQ-9" value="" style="triangle;whiteSpace=wrap;html=1;fontSize=24;rotation=-45;fillColor=#d5e8d4;strokeColor=#82b366;gradientColor=#97d077;" parent="1" vertex="1">
          <mxGeometry x="5361.43" y="-395.17999999999995" width="22" height="39.5" as="geometry" />
        </mxCell>
        <mxCell id="X1lBy5AKCkMjXvbI9ENQ-10" value="" style="triangle;whiteSpace=wrap;html=1;fontSize=24;rotation=-135;fillColor=#d5e8d4;strokeColor=#82b366;gradientColor=#97d077;" parent="1" vertex="1">
          <mxGeometry x="5397" y="-394.4899999999999" width="22" height="39.5" as="geometry" />
        </mxCell>
        <mxCell id="X1lBy5AKCkMjXvbI9ENQ-11" value="1/8&quot; OD PTFE tubing" style="text;html=1;align=center;verticalAlign=middle;resizable=0;points=[];autosize=1;strokeColor=none;fillColor=none;fontSize=24;fontColor=#000000;" parent="1" vertex="1">
          <mxGeometry x="5400" y="-361.4899999999999" width="250" height="40" as="geometry" />
        </mxCell>
        <mxCell id="X1lBy5AKCkMjXvbI9ENQ-12" value="" style="endArrow=classic;html=1;rounded=0;fontSize=24;entryX=0.295;entryY=0.527;entryDx=0;entryDy=0;strokeWidth=4;fillColor=#f5f5f5;strokeColor=#4D4D4D;entryPerimeter=0;" parent="1" target="X1lBy5AKCkMjXvbI9ENQ-9" edge="1">
          <mxGeometry width="50" height="50" relative="1" as="geometry">
            <mxPoint x="5340" y="-342.4899999999999" as="sourcePoint" />
            <mxPoint x="5327.49" y="-332.48999999999967" as="targetPoint" />
          </mxGeometry>
        </mxCell>
        <mxCell id="X1lBy5AKCkMjXvbI9ENQ-13" value="Potting adhesive" style="text;html=1;align=center;verticalAlign=middle;resizable=0;points=[];autosize=1;strokeColor=none;fillColor=none;fontSize=24;fontColor=#000000;" parent="1" vertex="1">
          <mxGeometry x="5170" y="-346.9899999999999" width="200" height="40" as="geometry" />
        </mxCell>
        <mxCell id="IGTn5Lk8PJS0qs72Q6MI-4" value="" style="edgeStyle=orthogonalEdgeStyle;rounded=0;orthogonalLoop=1;jettySize=auto;html=1;strokeWidth=5;fillColor=#f8cecc;strokeColor=#b85450;endArrow=block;endFill=1;" parent="1" source="IGTn5Lk8PJS0qs72Q6MI-1" target="0DcWGhIIcSvqxJxgcLd7-28" edge="1">
          <mxGeometry relative="1" as="geometry">
            <Array as="points">
              <mxPoint x="1581" y="45.76" />
              <mxPoint x="1581" y="45.76" />
            </Array>
          </mxGeometry>
        </mxCell>
        <mxCell id="IGTn5Lk8PJS0qs72Q6MI-1" value="&lt;font style=&quot;font-size: 28px;&quot;&gt;Activation switch&lt;/font&gt;" style="rounded=0;whiteSpace=wrap;html=1;fillColor=#f8cecc;strokeColor=#b85450;fontSize=28;" parent="1" vertex="1">
          <mxGeometry x="1481" y="55.76" width="350" height="100" as="geometry" />
        </mxCell>
        <mxCell id="rmLvAz5VPHVxDJYR2BQ0-1" value="&lt;div style=&quot;font-size: 17px;&quot;&gt;Three 18650 batteries tabbed in parallel&lt;/div&gt;" style="rounded=0;whiteSpace=wrap;html=1;fontSize=17;" parent="1" vertex="1">
          <mxGeometry x="4161.5" y="1062.75" width="190" height="60" as="geometry" />
        </mxCell>
        <mxCell id="rmLvAz5VPHVxDJYR2BQ0-2" value="Battery protection circuity" style="rounded=0;whiteSpace=wrap;html=1;fontSize=17;" parent="1" vertex="1">
          <mxGeometry x="3936.5" y="1062.75" width="120" height="60" as="geometry" />
        </mxCell>
        <mxCell id="rmLvAz5VPHVxDJYR2BQ0-3" value="" style="endArrow=none;startArrow=none;html=1;exitX=1.012;exitY=0.344;exitDx=0;exitDy=0;exitPerimeter=0;entryX=0;entryY=0.344;entryDx=0;entryDy=0;entryPerimeter=0;fillColor=#f8cecc;strokeColor=#b85450;startFill=0;endFill=0;strokeWidth=4;" parent="1" source="rmLvAz5VPHVxDJYR2BQ0-2" target="rmLvAz5VPHVxDJYR2BQ0-1" edge="1">
          <mxGeometry width="50" height="50" relative="1" as="geometry">
            <mxPoint x="4051.5" y="1162.75" as="sourcePoint" />
            <mxPoint x="4101.5" y="1112.75" as="targetPoint" />
          </mxGeometry>
        </mxCell>
        <mxCell id="rmLvAz5VPHVxDJYR2BQ0-4" value="" style="endArrow=none;startArrow=none;html=1;entryX=0;entryY=0.75;entryDx=0;entryDy=0;exitX=1;exitY=0.75;exitDx=0;exitDy=0;startFill=0;endFill=0;fillColor=#f5f5f5;strokeColor=#666666;endSize=6;strokeWidth=4;" parent="1" source="rmLvAz5VPHVxDJYR2BQ0-2" target="rmLvAz5VPHVxDJYR2BQ0-1" edge="1">
          <mxGeometry width="50" height="50" relative="1" as="geometry">
            <mxPoint x="4061.5" y="1102.75" as="sourcePoint" />
            <mxPoint x="4161.5" y="1102.75" as="targetPoint" />
          </mxGeometry>
        </mxCell>
        <mxCell id="rmLvAz5VPHVxDJYR2BQ0-5" value="" style="endArrow=none;startArrow=none;html=1;exitX=1.012;exitY=0.344;exitDx=0;exitDy=0;exitPerimeter=0;fillColor=#f8cecc;strokeColor=#b85450;startFill=0;endFill=0;strokeWidth=4;" parent="1" edge="1">
          <mxGeometry width="50" height="50" relative="1" as="geometry">
            <mxPoint x="4072.5" y="989.75" as="sourcePoint" />
            <mxPoint x="4122.5" y="989.75" as="targetPoint" />
          </mxGeometry>
        </mxCell>
        <mxCell id="rmLvAz5VPHVxDJYR2BQ0-6" value="22 AWG Copper wire with&lt;br style=&quot;font-size: 15px;&quot;&gt;PVC insulation" style="text;html=1;align=center;verticalAlign=middle;resizable=0;points=[];autosize=1;fontSize=15;" parent="1" vertex="1">
          <mxGeometry x="4116.5" y="970.75" width="190" height="50" as="geometry" />
        </mxCell>
        <mxCell id="rmLvAz5VPHVxDJYR2BQ0-7" value="Cell +" style="text;html=1;align=center;verticalAlign=middle;resizable=0;points=[];autosize=1;" parent="1" vertex="1">
          <mxGeometry x="4078.5" y="1064.75" width="50" height="20" as="geometry" />
        </mxCell>
        <mxCell id="rmLvAz5VPHVxDJYR2BQ0-8" value="Wire Legend" style="text;html=1;align=center;verticalAlign=middle;resizable=0;points=[];autosize=1;fontSize=17;" parent="1" vertex="1">
          <mxGeometry x="4113.5" y="945" width="120" height="30" as="geometry" />
        </mxCell>
        <mxCell id="rmLvAz5VPHVxDJYR2BQ0-9" value="Cell -" style="text;html=1;align=center;verticalAlign=middle;resizable=0;points=[];autosize=1;" parent="1" vertex="1">
          <mxGeometry x="4083.5" y="1106.75" width="40" height="20" as="geometry" />
        </mxCell>
        <mxCell id="rmLvAz5VPHVxDJYR2BQ0-10" value="" style="endArrow=none;startArrow=none;html=1;exitX=1.012;exitY=0.344;exitDx=0;exitDy=0;exitPerimeter=0;fillColor=#f5f5f5;strokeColor=#666666;startFill=0;endFill=0;strokeWidth=4;" parent="1" edge="1">
          <mxGeometry width="50" height="50" relative="1" as="geometry">
            <mxPoint x="4072.5" y="999.75" as="sourcePoint" />
            <mxPoint x="4122.5" y="999.75" as="targetPoint" />
          </mxGeometry>
        </mxCell>
        <mxCell id="rmLvAz5VPHVxDJYR2BQ0-11" value="KREPE flight computer, Iridium radio, all circuitry except battery protection" style="rounded=0;whiteSpace=wrap;html=1;fontSize=17;" parent="1" vertex="1">
          <mxGeometry x="3936.5" y="852.75" width="225" height="60" as="geometry" />
        </mxCell>
        <mxCell id="rmLvAz5VPHVxDJYR2BQ0-12" value="" style="endArrow=none;html=1;strokeWidth=4;entryX=0.428;entryY=1;entryDx=0;entryDy=0;exitX=0.469;exitY=0;exitDx=0;exitDy=0;exitPerimeter=0;fillColor=#f5f5f5;strokeColor=#666666;entryPerimeter=0;" parent="1" target="rmLvAz5VPHVxDJYR2BQ0-11" edge="1">
          <mxGeometry width="50" height="50" relative="1" as="geometry">
            <mxPoint x="4032.7799999999997" y="1062.75" as="sourcePoint" />
            <mxPoint x="4032.75" y="922.75" as="targetPoint" />
          </mxGeometry>
        </mxCell>
        <mxCell id="rmLvAz5VPHVxDJYR2BQ0-13" value="Pack +" style="text;html=1;align=center;verticalAlign=middle;resizable=0;points=[];autosize=1;" parent="1" vertex="1">
          <mxGeometry x="3936.5" y="1030.75" width="50" height="20" as="geometry" />
        </mxCell>
        <mxCell id="rmLvAz5VPHVxDJYR2BQ0-14" value="Pack -" style="text;html=1;align=center;verticalAlign=middle;resizable=0;points=[];autosize=1;" parent="1" vertex="1">
          <mxGeometry x="4032.5" y="1030.75" width="50" height="20" as="geometry" />
        </mxCell>
        <mxCell id="rmLvAz5VPHVxDJYR2BQ0-15" value="" style="endArrow=none;html=1;strokeWidth=1;exitX=0.469;exitY=0;exitDx=0;exitDy=0;exitPerimeter=0;fillColor=#f8cecc;strokeColor=#b85450;" parent="1" source="rmLvAz5VPHVxDJYR2BQ0-16" edge="1">
          <mxGeometry width="50" height="50" relative="1" as="geometry">
            <mxPoint x="3992.7799999999997" y="1062.75" as="sourcePoint" />
            <mxPoint x="3992.5" y="992.75" as="targetPoint" />
          </mxGeometry>
        </mxCell>
        <mxCell id="rmLvAz5VPHVxDJYR2BQ0-16" value="" style="ellipse;whiteSpace=wrap;html=1;" parent="1" vertex="1">
          <mxGeometry x="3986.5" y="982.75" width="10" height="10" as="geometry" />
        </mxCell>
        <mxCell id="rmLvAz5VPHVxDJYR2BQ0-17" value="" style="endArrow=none;html=1;strokeWidth=4;exitX=0.463;exitY=0.001;exitDx=0;exitDy=0;exitPerimeter=0;fillColor=#f8cecc;strokeColor=#b85450;" parent="1" source="rmLvAz5VPHVxDJYR2BQ0-2" target="rmLvAz5VPHVxDJYR2BQ0-16" edge="1">
          <mxGeometry width="50" height="50" relative="1" as="geometry">
            <mxPoint x="3992.7799999999997" y="1062.75" as="sourcePoint" />
            <mxPoint x="3992.5" y="992.75" as="targetPoint" />
          </mxGeometry>
        </mxCell>
        <mxCell id="rmLvAz5VPHVxDJYR2BQ0-18" value="" style="endArrow=none;html=1;strokeWidth=1;" parent="1" edge="1">
          <mxGeometry width="50" height="50" relative="1" as="geometry">
            <mxPoint x="3961.5" y="982.75" as="sourcePoint" />
            <mxPoint x="3991.5" y="952.75" as="targetPoint" />
          </mxGeometry>
        </mxCell>
        <mxCell id="rmLvAz5VPHVxDJYR2BQ0-19" value="" style="ellipse;whiteSpace=wrap;html=1;" parent="1" vertex="1">
          <mxGeometry x="3986.5" y="947.75" width="10" height="10" as="geometry" />
        </mxCell>
        <mxCell id="rmLvAz5VPHVxDJYR2BQ0-20" value="&lt;div style=&quot;font-size: 18px;&quot;&gt;&lt;br&gt;&lt;/div&gt;" style="text;html=1;align=center;verticalAlign=middle;resizable=0;points=[];autosize=1;fontSize=18;" parent="1" vertex="1">
          <mxGeometry x="3871.5" y="962.75" width="20" height="40" as="geometry" />
        </mxCell>
        <mxCell id="rmLvAz5VPHVxDJYR2BQ0-21" value="" style="endArrow=none;html=1;strokeWidth=4;fillColor=#f8cecc;strokeColor=#b85450;exitX=0.5;exitY=0;exitDx=0;exitDy=0;entryX=0.246;entryY=1.011;entryDx=0;entryDy=0;entryPerimeter=0;" parent="1" source="rmLvAz5VPHVxDJYR2BQ0-19" target="rmLvAz5VPHVxDJYR2BQ0-11" edge="1">
          <mxGeometry width="50" height="50" relative="1" as="geometry">
            <mxPoint x="3990.5" y="952.75" as="sourcePoint" />
            <mxPoint x="3990.8963269833184" y="912.7494174073383" as="targetPoint" />
          </mxGeometry>
        </mxCell>
        <mxCell id="rmLvAz5VPHVxDJYR2BQ0-22" value="KREPE Electrical Inhibits and Battery Protection" style="text;html=1;strokeColor=none;fillColor=none;align=center;verticalAlign=middle;whiteSpace=wrap;rounded=0;fontSize=21;" parent="1" vertex="1">
          <mxGeometry x="3811.5" y="759" width="325" height="20" as="geometry" />
        </mxCell>
        <mxCell id="Hg2oVbrzCMMPYZxzTnF7-1" value="&lt;font style=&quot;font-size: 28px;&quot;&gt;Activation springs&lt;/font&gt;" style="rounded=0;whiteSpace=wrap;html=1;fontSize=14;fillColor=#e1d5e7;strokeColor=#9673a6;" parent="1" vertex="1">
          <mxGeometry x="930" y="-284.24" width="120" height="110" as="geometry" />
        </mxCell>
        <mxCell id="4M-4LpM4qEvd3P7LR1Mv-2" style="edgeStyle=orthogonalEdgeStyle;rounded=0;orthogonalLoop=1;jettySize=auto;html=1;entryX=0;entryY=0.5;entryDx=0;entryDy=0;strokeWidth=5;endArrow=block;endFill=1;fillColor=#f8cecc;strokeColor=#FF0000;" parent="1" source="4M-4LpM4qEvd3P7LR1Mv-3" target="4M-4LpM4qEvd3P7LR1Mv-5" edge="1">
          <mxGeometry relative="1" as="geometry" />
        </mxCell>
        <mxCell id="4M-4LpM4qEvd3P7LR1Mv-3" value="&lt;font style=&quot;font-size: 28px;&quot;&gt;Battery Pack and Protection Circuitry&lt;/font&gt;" style="rounded=0;whiteSpace=wrap;html=1;fillColor=#f8cecc;strokeColor=#b85450;fontSize=28;" parent="1" vertex="1">
          <mxGeometry x="3799" y="1987" width="481" height="100" as="geometry" />
        </mxCell>
        <mxCell id="4M-4LpM4qEvd3P7LR1Mv-4" value="" style="edgeStyle=orthogonalEdgeStyle;rounded=0;orthogonalLoop=1;jettySize=auto;html=1;strokeWidth=5;fillColor=#f8cecc;strokeColor=#FF0000;endArrow=block;endFill=1;" parent="1" source="4M-4LpM4qEvd3P7LR1Mv-5" edge="1">
          <mxGeometry relative="1" as="geometry">
            <Array as="points">
              <mxPoint x="4450" y="1977" />
              <mxPoint x="4450" y="1977" />
            </Array>
            <mxPoint x="4450" y="1941" as="targetPoint" />
          </mxGeometry>
        </mxCell>
        <mxCell id="4M-4LpM4qEvd3P7LR1Mv-5" value="&lt;font style=&quot;font-size: 28px;&quot;&gt;Activation switch&lt;/font&gt;" style="rounded=0;whiteSpace=wrap;html=1;fillColor=#f8cecc;strokeColor=#b85450;fontSize=28;" parent="1" vertex="1">
          <mxGeometry x="4366" y="1987" width="354" height="100" as="geometry" />
        </mxCell>
        <mxCell id="4M-4LpM4qEvd3P7LR1Mv-7" value="Informed Data Selection" style="rounded=0;whiteSpace=wrap;html=1;fillColor=#dae8fc;strokeColor=#6c8ebf;fontSize=28;" parent="1" vertex="1">
          <mxGeometry x="4570" y="1757" width="150" height="100" as="geometry" />
        </mxCell>
        <mxCell id="VNUVc3ocm5papmvAgX4y-1" value="NanoPi Neo Air" style="text;html=1;strokeColor=none;fillColor=none;align=center;verticalAlign=middle;whiteSpace=wrap;rounded=0;fontSize=28;" parent="1" vertex="1">
          <mxGeometry x="5554" y="75.63" width="360" height="30" as="geometry" />
        </mxCell>
        <mxCell id="VNUVc3ocm5papmvAgX4y-7" value="&lt;font style=&quot;font-size: 26px;&quot;&gt;Sensor data&lt;/font&gt;" style="edgeStyle=orthogonalEdgeStyle;rounded=0;orthogonalLoop=1;jettySize=auto;html=1;strokeWidth=5;endArrow=block;endFill=1;exitX=1.006;exitY=0.127;exitDx=0;exitDy=0;exitPerimeter=0;entryX=-0.013;entryY=0.21;entryDx=0;entryDy=0;entryPerimeter=0;" parent="1" source="VNUVc3ocm5papmvAgX4y-13" target="VNUVc3ocm5papmvAgX4y-15" edge="1">
          <mxGeometry x="0.0051" relative="1" as="geometry">
            <mxPoint x="5629" y="160.63" as="targetPoint" />
            <mxPoint x="1" as="offset" />
          </mxGeometry>
        </mxCell>
        <mxCell id="VNUVc3ocm5papmvAgX4y-8" value="&lt;font style=&quot;font-size: 26px;&quot;&gt;Packet request&lt;/font&gt;" style="edgeStyle=orthogonalEdgeStyle;rounded=0;orthogonalLoop=1;jettySize=auto;html=1;strokeWidth=5;endArrow=block;endFill=1;entryX=-0.018;entryY=0.355;entryDx=0;entryDy=0;entryPerimeter=0;exitX=1;exitY=0.25;exitDx=0;exitDy=0;" parent="1" source="VNUVc3ocm5papmvAgX4y-13" target="VNUVc3ocm5papmvAgX4y-15" edge="1">
          <mxGeometry relative="1" as="geometry">
            <mxPoint x="5324" y="208.12999999999954" as="sourcePoint" />
            <mxPoint x="5669.78" y="208.83000000000027" as="targetPoint" />
          </mxGeometry>
        </mxCell>
        <mxCell id="VNUVc3ocm5papmvAgX4y-10" value="&lt;font style=&quot;font-size: 26px;&quot;&gt;Packet data&lt;/font&gt;" style="edgeStyle=orthogonalEdgeStyle;rounded=0;orthogonalLoop=1;jettySize=auto;html=1;entryX=-0.004;entryY=0.842;entryDx=0;entryDy=0;strokeWidth=5;endArrow=none;endFill=0;startArrow=block;startFill=1;entryPerimeter=0;exitX=0.99;exitY=0.598;exitDx=0;exitDy=0;exitPerimeter=0;" parent="1" source="VNUVc3ocm5papmvAgX4y-13" target="VNUVc3ocm5papmvAgX4y-15" edge="1">
          <mxGeometry x="-0.001" relative="1" as="geometry">
            <mxPoint x="5329" y="257.63" as="sourcePoint" />
            <mxPoint x="5626.496" y="293.5849999999999" as="targetPoint" />
            <Array as="points">
              <mxPoint x="5668" y="257.63" />
            </Array>
            <mxPoint as="offset" />
          </mxGeometry>
        </mxCell>
        <mxCell id="VNUVc3ocm5papmvAgX4y-12" value="UART" style="text;html=1;strokeColor=none;fillColor=default;align=center;verticalAlign=middle;whiteSpace=wrap;rounded=0;fontSize=28;" parent="1" vertex="1">
          <mxGeometry x="5418.5" y="84.13" width="145" height="30" as="geometry" />
        </mxCell>
        <mxCell id="VNUVc3ocm5papmvAgX4y-13" value="Feather M4" style="rounded=0;whiteSpace=wrap;html=1;fontSize=22;" parent="1" vertex="1">
          <mxGeometry x="5194" y="137.13" width="130" height="202" as="geometry" />
        </mxCell>
        <mxCell id="VNUVc3ocm5papmvAgX4y-14" value="KFC" style="text;html=1;strokeColor=none;fillColor=none;align=center;verticalAlign=middle;whiteSpace=wrap;rounded=0;fontSize=28;" parent="1" vertex="1">
          <mxGeometry x="5070" y="84.13" width="360" height="30" as="geometry" />
        </mxCell>
        <mxCell id="VNUVc3ocm5papmvAgX4y-15" value="KAPS Software" style="rounded=0;whiteSpace=wrap;html=1;fontSize=22;" parent="1" vertex="1">
          <mxGeometry x="5669" y="117.63" width="130" height="202" as="geometry" />
        </mxCell>
        <mxCell id="VNUVc3ocm5papmvAgX4y-56" style="edgeStyle=orthogonalEdgeStyle;rounded=0;orthogonalLoop=1;jettySize=auto;html=1;entryX=1;entryY=0.5;entryDx=0;entryDy=0;strokeWidth=10;endArrow=baseDash;endFill=0;startArrow=baseDash;startFill=0;strokeColor=#3333FF;" parent="1" source="VNUVc3ocm5papmvAgX4y-16" target="VNUVc3ocm5papmvAgX4y-19" edge="1">
          <mxGeometry relative="1" as="geometry">
            <Array as="points">
              <mxPoint x="4160" y="-259" />
              <mxPoint x="4160" y="-259" />
            </Array>
          </mxGeometry>
        </mxCell>
        <mxCell id="VNUVc3ocm5papmvAgX4y-81" style="edgeStyle=orthogonalEdgeStyle;rounded=0;orthogonalLoop=1;jettySize=auto;html=1;entryX=0.75;entryY=1;entryDx=0;entryDy=0;exitX=0.996;exitY=0.052;exitDx=0;exitDy=0;exitPerimeter=0;strokeWidth=10;endArrow=none;endFill=0;startArrow=none;startFill=0;" parent="1" source="VNUVc3ocm5papmvAgX4y-16" target="VNUVc3ocm5papmvAgX4y-42" edge="1">
          <mxGeometry relative="1" as="geometry" />
        </mxCell>
        <mxCell id="VNUVc3ocm5papmvAgX4y-90" style="edgeStyle=orthogonalEdgeStyle;rounded=0;orthogonalLoop=1;jettySize=auto;html=1;entryX=0;entryY=0.5;entryDx=0;entryDy=0;strokeWidth=6;strokeColor=#FF00FF;" parent="1" source="VNUVc3ocm5papmvAgX4y-25" target="VNUVc3ocm5papmvAgX4y-26" edge="1">
          <mxGeometry relative="1" as="geometry">
            <mxPoint x="4640" y="40" as="targetPoint" />
          </mxGeometry>
        </mxCell>
        <mxCell id="VNUVc3ocm5papmvAgX4y-82" value="" style="edgeStyle=orthogonalEdgeStyle;rounded=0;orthogonalLoop=1;jettySize=auto;html=1;entryX=1;entryY=0.119;entryDx=0;entryDy=0;entryPerimeter=0;endArrow=baseDash;endFill=0;startArrow=baseDash;startFill=0;strokeWidth=10;strokeColor=#FF9933;" parent="1" source="VNUVc3ocm5papmvAgX4y-27" target="VNUVc3ocm5papmvAgX4y-16" edge="1">
          <mxGeometry relative="1" as="geometry">
            <Array as="points">
              <mxPoint x="4372" y="-275" />
            </Array>
          </mxGeometry>
        </mxCell>
        <mxCell id="VNUVc3ocm5papmvAgX4y-79" style="edgeStyle=orthogonalEdgeStyle;rounded=0;orthogonalLoop=1;jettySize=auto;html=1;entryX=0.5;entryY=0;entryDx=0;entryDy=0;strokeWidth=10;endArrow=baseDash;endFill=0;fillColor=#fff2cc;strokeColor=#FF0000;startArrow=baseDash;startFill=0;" parent="1" target="VNUVc3ocm5papmvAgX4y-42" edge="1">
          <mxGeometry relative="1" as="geometry">
            <mxPoint x="4381" y="-500" as="sourcePoint" />
            <Array as="points">
              <mxPoint x="4381" y="-480" />
            </Array>
          </mxGeometry>
        </mxCell>
        <mxCell id="VNUVc3ocm5papmvAgX4y-92" style="edgeStyle=orthogonalEdgeStyle;rounded=0;orthogonalLoop=1;jettySize=auto;html=1;exitX=0.201;exitY=1.001;exitDx=0;exitDy=0;exitPerimeter=0;strokeWidth=10;endArrow=baseDash;endFill=0;strokeColor=#FF0000;startArrow=baseDash;startFill=0;" parent="1" source="VNUVc3ocm5papmvAgX4y-30" target="VNUVc3ocm5papmvAgX4y-22" edge="1">
          <mxGeometry relative="1" as="geometry">
            <Array as="points" />
          </mxGeometry>
        </mxCell>
        <mxCell id="VNUVc3ocm5papmvAgX4y-89" style="edgeStyle=orthogonalEdgeStyle;rounded=0;orthogonalLoop=1;jettySize=auto;html=1;entryX=0.5;entryY=0;entryDx=0;entryDy=0;" parent="1" source="VNUVc3ocm5papmvAgX4y-31" target="VNUVc3ocm5papmvAgX4y-32" edge="1">
          <mxGeometry relative="1" as="geometry" />
        </mxCell>
        <mxCell id="VNUVc3ocm5papmvAgX4y-91" value="" style="edgeStyle=orthogonalEdgeStyle;rounded=0;orthogonalLoop=1;jettySize=auto;html=1;strokeWidth=6;strokeColor=#FF00FF;" parent="1" source="VNUVc3ocm5papmvAgX4y-31" target="VNUVc3ocm5papmvAgX4y-32" edge="1">
          <mxGeometry relative="1" as="geometry" />
        </mxCell>
        <mxCell id="VNUVc3ocm5papmvAgX4y-43" style="edgeStyle=orthogonalEdgeStyle;rounded=0;orthogonalLoop=1;jettySize=auto;html=1;entryX=0;entryY=0.5;entryDx=0;entryDy=0;exitX=0.088;exitY=0.99;exitDx=0;exitDy=0;exitPerimeter=0;strokeWidth=10;endArrow=baseDash;endFill=0;fillColor=#f8cecc;strokeColor=#FF0000;" parent="1" source="VNUVc3ocm5papmvAgX4y-41" target="VNUVc3ocm5papmvAgX4y-19" edge="1">
          <mxGeometry relative="1" as="geometry" />
        </mxCell>
        <mxCell id="VNUVc3ocm5papmvAgX4y-80" value="" style="edgeStyle=orthogonalEdgeStyle;rounded=0;orthogonalLoop=1;jettySize=auto;html=1;strokeColor=#FF0000;endArrow=baseDash;endFill=0;strokeWidth=10;startArrow=baseDash;startFill=0;" parent="1" source="VNUVc3ocm5papmvAgX4y-42" target="VNUVc3ocm5papmvAgX4y-24" edge="1">
          <mxGeometry relative="1" as="geometry">
            <Array as="points">
              <mxPoint x="4480" y="-420" />
              <mxPoint x="4480" y="-420" />
            </Array>
          </mxGeometry>
        </mxCell>
        <mxCell id="VNUVc3ocm5papmvAgX4y-44" style="edgeStyle=orthogonalEdgeStyle;rounded=0;orthogonalLoop=1;jettySize=auto;html=1;entryX=0;entryY=0.5;entryDx=0;entryDy=0;exitX=0.086;exitY=0.978;exitDx=0;exitDy=0;exitPerimeter=0;strokeWidth=10;endArrow=baseDash;endFill=0;fillColor=#f8cecc;strokeColor=#FF0000;" parent="1" source="VNUVc3ocm5papmvAgX4y-41" target="VNUVc3ocm5papmvAgX4y-20" edge="1">
          <mxGeometry relative="1" as="geometry">
            <mxPoint x="3630" y="-210" as="sourcePoint" />
            <mxPoint x="3667" y="-162" as="targetPoint" />
          </mxGeometry>
        </mxCell>
        <mxCell id="VNUVc3ocm5papmvAgX4y-45" style="edgeStyle=orthogonalEdgeStyle;rounded=0;orthogonalLoop=1;jettySize=auto;html=1;entryX=0;entryY=0.5;entryDx=0;entryDy=0;strokeWidth=10;endArrow=baseDash;endFill=0;fillColor=#f8cecc;strokeColor=#FF0000;" parent="1" target="VNUVc3ocm5papmvAgX4y-17" edge="1">
          <mxGeometry relative="1" as="geometry">
            <mxPoint x="3677" y="-300" as="sourcePoint" />
            <mxPoint x="3677" y="-174" as="targetPoint" />
            <Array as="points">
              <mxPoint x="3677" y="-101" />
            </Array>
          </mxGeometry>
        </mxCell>
        <mxCell id="VNUVc3ocm5papmvAgX4y-46" style="edgeStyle=orthogonalEdgeStyle;rounded=0;orthogonalLoop=1;jettySize=auto;html=1;entryX=0;entryY=0.5;entryDx=0;entryDy=0;strokeWidth=10;endArrow=baseDash;endFill=0;fillColor=#f8cecc;strokeColor=#FF0000;" parent="1" target="VNUVc3ocm5papmvAgX4y-33" edge="1">
          <mxGeometry relative="1" as="geometry">
            <mxPoint x="3680" y="-300" as="sourcePoint" />
            <mxPoint x="3746" y="-229" as="targetPoint" />
            <Array as="points">
              <mxPoint x="3677" y="-300" />
              <mxPoint x="3677" y="46" />
            </Array>
          </mxGeometry>
        </mxCell>
        <mxCell id="VNUVc3ocm5papmvAgX4y-47" style="edgeStyle=orthogonalEdgeStyle;rounded=0;orthogonalLoop=1;jettySize=auto;html=1;strokeWidth=10;endArrow=baseDash;endFill=0;fillColor=#f8cecc;strokeColor=#FF0000;entryX=0;entryY=0.5;entryDx=0;entryDy=0;" parent="1" target="VNUVc3ocm5papmvAgX4y-39" edge="1">
          <mxGeometry relative="1" as="geometry">
            <mxPoint x="3677" y="-306" as="sourcePoint" />
            <mxPoint x="3610" y="30.952380952380953" as="targetPoint" />
            <Array as="points">
              <mxPoint x="3677" y="178" />
            </Array>
          </mxGeometry>
        </mxCell>
        <mxCell id="VNUVc3ocm5papmvAgX4y-52" style="edgeStyle=orthogonalEdgeStyle;rounded=0;orthogonalLoop=1;jettySize=auto;html=1;strokeWidth=10;endArrow=baseDash;endFill=0;fillColor=#f8cecc;strokeColor=#FF0000;entryX=0;entryY=0.5;entryDx=0;entryDy=0;" parent="1" target="VNUVc3ocm5papmvAgX4y-37" edge="1">
          <mxGeometry relative="1" as="geometry">
            <mxPoint x="3677" y="-310" as="sourcePoint" />
            <mxPoint x="3690" y="230" as="targetPoint" />
            <Array as="points">
              <mxPoint x="3677" y="-290" />
              <mxPoint x="3677" y="253" />
              <mxPoint x="3716" y="253" />
            </Array>
          </mxGeometry>
        </mxCell>
        <mxCell id="VNUVc3ocm5papmvAgX4y-63" value="" style="endArrow=none;html=1;rounded=1;fontSize=29;strokeColor=#009900;strokeWidth=9;endFill=0;" parent="1" edge="1">
          <mxGeometry width="50" height="50" relative="1" as="geometry">
            <mxPoint x="4120.52" y="383" as="sourcePoint" />
            <mxPoint x="4164.02" y="383" as="targetPoint" />
          </mxGeometry>
        </mxCell>
        <mxCell id="VNUVc3ocm5papmvAgX4y-64" value="SPI" style="text;html=1;align=center;verticalAlign=middle;resizable=0;points=[];autosize=1;strokeColor=none;fillColor=none;fontSize=28;" parent="1" vertex="1">
          <mxGeometry x="4027.27" y="387" width="70" height="50" as="geometry" />
        </mxCell>
        <mxCell id="VNUVc3ocm5papmvAgX4y-65" value="" style="endArrow=none;html=1;rounded=1;fontSize=29;strokeColor=#007FFF;strokeWidth=9;exitX=-0.022;exitY=-0.04;exitDx=0;exitDy=0;exitPerimeter=0;entryX=0.912;entryY=-0.06;entryDx=0;entryDy=0;entryPerimeter=0;endFill=0;" parent="1" source="VNUVc3ocm5papmvAgX4y-64" target="VNUVc3ocm5papmvAgX4y-64" edge="1">
          <mxGeometry width="50" height="50" relative="1" as="geometry">
            <mxPoint x="4040.27" y="423" as="sourcePoint" />
            <mxPoint x="4090.27" y="373" as="targetPoint" />
          </mxGeometry>
        </mxCell>
        <mxCell id="VNUVc3ocm5papmvAgX4y-66" value="I2C" style="text;html=1;align=center;verticalAlign=middle;resizable=0;points=[];autosize=1;strokeColor=none;fillColor=none;fontSize=28;" parent="1" vertex="1">
          <mxGeometry x="4104.27" y="387" width="70" height="50" as="geometry" />
        </mxCell>
        <mxCell id="VNUVc3ocm5papmvAgX4y-67" value="" style="endArrow=none;html=1;rounded=1;fontSize=29;strokeColor=#FF8000;strokeWidth=9;endFill=0;" parent="1" edge="1">
          <mxGeometry width="50" height="50" relative="1" as="geometry">
            <mxPoint x="4191.27" y="380" as="sourcePoint" />
            <mxPoint x="4246.27" y="379" as="targetPoint" />
          </mxGeometry>
        </mxCell>
        <mxCell id="VNUVc3ocm5papmvAgX4y-68" value="UART" style="text;html=1;align=center;verticalAlign=middle;resizable=0;points=[];autosize=1;strokeColor=none;fillColor=none;fontSize=28;" parent="1" vertex="1">
          <mxGeometry x="4173.27" y="385" width="100" height="50" as="geometry" />
        </mxCell>
        <mxCell id="VNUVc3ocm5papmvAgX4y-69" value="" style="endArrow=none;html=1;rounded=1;fontSize=29;strokeColor=#000000;strokeWidth=9;endFill=0;" parent="1" edge="1">
          <mxGeometry width="50" height="50" relative="1" as="geometry">
            <mxPoint x="4451.27" y="381.9999999999991" as="sourcePoint" />
            <mxPoint x="4522.27" y="380" as="targetPoint" />
          </mxGeometry>
        </mxCell>
        <mxCell id="VNUVc3ocm5papmvAgX4y-70" value="GPIO" style="text;html=1;align=center;verticalAlign=middle;resizable=0;points=[];autosize=1;strokeColor=none;fillColor=none;fontSize=28;" parent="1" vertex="1">
          <mxGeometry x="4444.27" y="385" width="90" height="50" as="geometry" />
        </mxCell>
        <mxCell id="VNUVc3ocm5papmvAgX4y-71" value="" style="endArrow=none;html=1;rounded=1;fontSize=29;strokeColor=#CC00CC;strokeWidth=9;endFill=0;" parent="1" edge="1">
          <mxGeometry width="50" height="50" relative="1" as="geometry">
            <mxPoint x="4280.27" y="379" as="sourcePoint" />
            <mxPoint x="4337.270000000002" y="378" as="targetPoint" />
          </mxGeometry>
        </mxCell>
        <mxCell id="VNUVc3ocm5papmvAgX4y-72" value="RF" style="text;html=1;align=center;verticalAlign=middle;resizable=0;points=[];autosize=1;strokeColor=none;fillColor=none;fontSize=28;" parent="1" vertex="1">
          <mxGeometry x="4278.09" y="383" width="60" height="50" as="geometry" />
        </mxCell>
        <mxCell id="VNUVc3ocm5papmvAgX4y-73" value="" style="endArrow=none;html=1;rounded=1;fontSize=29;strokeColor=#FF0000;strokeWidth=9;endFill=0;" parent="1" edge="1">
          <mxGeometry width="50" height="50" relative="1" as="geometry">
            <mxPoint x="4362.270000000002" y="381" as="sourcePoint" />
            <mxPoint x="4428.269999999999" y="380" as="targetPoint" />
          </mxGeometry>
        </mxCell>
        <mxCell id="VNUVc3ocm5papmvAgX4y-74" value="Power" style="text;html=1;align=center;verticalAlign=middle;resizable=0;points=[];autosize=1;strokeColor=none;fillColor=none;fontSize=28;" parent="1" vertex="1">
          <mxGeometry x="4346.27" y="385" width="100" height="50" as="geometry" />
        </mxCell>
        <mxCell id="VNUVc3ocm5papmvAgX4y-75" style="edgeStyle=orthogonalEdgeStyle;rounded=0;orthogonalLoop=1;jettySize=auto;html=1;strokeWidth=10;endArrow=baseDash;endFill=0;fillColor=#f8cecc;strokeColor=#FF0000;entryX=1;entryY=0.5;entryDx=0;entryDy=0;" parent="1" target="VNUVc3ocm5papmvAgX4y-31" edge="1">
          <mxGeometry relative="1" as="geometry">
            <mxPoint x="4840" y="-383.09000000000003" as="sourcePoint" />
            <mxPoint x="4800" y="241" as="targetPoint" />
            <Array as="points">
              <mxPoint x="4840" y="150" />
            </Array>
          </mxGeometry>
        </mxCell>
        <mxCell id="VNUVc3ocm5papmvAgX4y-77" style="edgeStyle=orthogonalEdgeStyle;rounded=0;orthogonalLoop=1;jettySize=auto;html=1;strokeWidth=10;endArrow=baseDash;endFill=0;fillColor=#f8cecc;strokeColor=#FF0000;" parent="1" edge="1">
          <mxGeometry relative="1" as="geometry">
            <mxPoint x="4840" y="-383.09000000000003" as="sourcePoint" />
            <mxPoint x="4800" y="-130" as="targetPoint" />
            <Array as="points">
              <mxPoint x="4840" y="-130" />
              <mxPoint x="4800" y="-130" />
            </Array>
          </mxGeometry>
        </mxCell>
        <mxCell id="VNUVc3ocm5papmvAgX4y-78" style="edgeStyle=orthogonalEdgeStyle;rounded=0;orthogonalLoop=1;jettySize=auto;html=1;strokeWidth=10;endArrow=baseDash;endFill=0;fillColor=#f8cecc;strokeColor=#FF0000;" parent="1" edge="1">
          <mxGeometry relative="1" as="geometry">
            <mxPoint x="4840" y="-383.09000000000003" as="sourcePoint" />
            <mxPoint x="4800" y="-280" as="targetPoint" />
            <Array as="points">
              <mxPoint x="4840" y="-280" />
              <mxPoint x="4800" y="-280" />
            </Array>
          </mxGeometry>
        </mxCell>
        <mxCell id="VNUVc3ocm5papmvAgX4y-86" value="" style="edgeStyle=orthogonalEdgeStyle;rounded=0;orthogonalLoop=1;jettySize=auto;html=1;entryX=1.011;entryY=0.133;entryDx=0;entryDy=0;entryPerimeter=0;endArrow=baseDash;endFill=0;startArrow=baseDash;startFill=0;strokeWidth=10;strokeColor=#FF9933;" parent="1" edge="1">
          <mxGeometry relative="1" as="geometry">
            <mxPoint x="4480" y="-125" as="sourcePoint" />
            <mxPoint x="4372" y="-125" as="targetPoint" />
          </mxGeometry>
        </mxCell>
        <mxCell id="VNUVc3ocm5papmvAgX4y-87" value="" style="edgeStyle=orthogonalEdgeStyle;rounded=0;orthogonalLoop=1;jettySize=auto;html=1;entryX=1.011;entryY=0.133;entryDx=0;entryDy=0;entryPerimeter=0;endArrow=baseDash;endFill=0;startArrow=baseDash;startFill=0;strokeWidth=10;strokeColor=#FF9933;" parent="1" edge="1">
          <mxGeometry relative="1" as="geometry">
            <mxPoint x="4480" y="-25" as="sourcePoint" />
            <mxPoint x="4372" y="-25" as="targetPoint" />
          </mxGeometry>
        </mxCell>
        <mxCell id="VNUVc3ocm5papmvAgX4y-88" value="" style="edgeStyle=orthogonalEdgeStyle;rounded=0;orthogonalLoop=1;jettySize=auto;html=1;entryX=1.011;entryY=0.133;entryDx=0;entryDy=0;entryPerimeter=0;endArrow=baseDash;endFill=0;startArrow=baseDash;startFill=0;strokeWidth=10;strokeColor=#FF9933;" parent="1" edge="1">
          <mxGeometry relative="1" as="geometry">
            <mxPoint x="4480" y="146" as="sourcePoint" />
            <mxPoint x="4372" y="146" as="targetPoint" />
          </mxGeometry>
        </mxCell>
        <mxCell id="VNUVc3ocm5papmvAgX4y-22" value="&lt;font style=&quot;font-size: 28px;&quot;&gt;Activation switch&lt;/font&gt;" style="rounded=0;whiteSpace=wrap;html=1;fillColor=#f8cecc;strokeColor=#b85450;fontSize=28;" parent="1" vertex="1">
          <mxGeometry x="3640" y="-460" width="240" height="65" as="geometry" />
        </mxCell>
        <mxCell id="VNUVc3ocm5papmvAgX4y-93" style="edgeStyle=orthogonalEdgeStyle;rounded=0;orthogonalLoop=1;jettySize=auto;html=1;strokeWidth=10;endArrow=baseDash;endFill=0;startArrow=baseDash;startFill=0;" parent="1" edge="1">
          <mxGeometry relative="1" as="geometry">
            <mxPoint x="4190" y="-330" as="sourcePoint" />
            <mxPoint x="4080" y="-330" as="targetPoint" />
            <Array as="points">
              <mxPoint x="4160" y="-330" />
              <mxPoint x="4160" y="-330" />
            </Array>
          </mxGeometry>
        </mxCell>
        <mxCell id="VNUVc3ocm5papmvAgX4y-94" style="edgeStyle=orthogonalEdgeStyle;rounded=0;orthogonalLoop=1;jettySize=auto;html=1;entryX=1;entryY=0.5;entryDx=0;entryDy=0;strokeWidth=10;endArrow=baseDash;endFill=0;startArrow=baseDash;startFill=0;strokeColor=#3333FF;" parent="1" edge="1">
          <mxGeometry relative="1" as="geometry">
            <mxPoint x="4190" y="-197" as="sourcePoint" />
            <mxPoint x="4079" y="-197" as="targetPoint" />
            <Array as="points">
              <mxPoint x="4160" y="-197" />
              <mxPoint x="4160" y="-197" />
            </Array>
          </mxGeometry>
        </mxCell>
        <mxCell id="VNUVc3ocm5papmvAgX4y-17" value="6 thermocouple to digital converters" style="rounded=0;whiteSpace=wrap;html=1;fillColor=#f5f5f5;strokeColor=#666666;fontSize=28;fontColor=#333333;" parent="1" vertex="1">
          <mxGeometry x="3716" y="-147.5" width="362" height="94" as="geometry" />
        </mxCell>
        <mxCell id="VNUVc3ocm5papmvAgX4y-19" value="&lt;font style=&quot;font-size: 28px;&quot;&gt;Debug radio&lt;/font&gt;" style="rounded=0;whiteSpace=wrap;html=1;fontSize=14;fillColor=#f5f5f5;strokeColor=#666666;fontColor=#333333;" parent="1" vertex="1">
          <mxGeometry x="3716" y="-281" width="363" height="44.25" as="geometry" />
        </mxCell>
        <mxCell id="VNUVc3ocm5papmvAgX4y-20" value="SD storage" style="rounded=0;whiteSpace=wrap;html=1;fontSize=28;fillColor=#f5f5f5;strokeColor=#666666;fontColor=#333333;" parent="1" vertex="1">
          <mxGeometry x="3716" y="-216" width="362" height="43" as="geometry" />
        </mxCell>
        <mxCell id="VNUVc3ocm5papmvAgX4y-24" value="5V regulator" style="rounded=0;whiteSpace=wrap;html=1;fillColor=#f8cecc;strokeColor=#b85450;fontSize=28;" parent="1" vertex="1">
          <mxGeometry x="4510" y="-460" width="350" height="77.5" as="geometry" />
        </mxCell>
        <mxCell id="VNUVc3ocm5papmvAgX4y-25" value="GPS receiver" style="rounded=0;whiteSpace=wrap;html=1;fontSize=28;fillColor=#bac8d3;strokeColor=#23445d;" parent="1" vertex="1">
          <mxGeometry x="4480" y="-53.5" width="320" height="53.5" as="geometry" />
        </mxCell>
        <mxCell id="VNUVc3ocm5papmvAgX4y-26" value="GPS antenna" style="rounded=0;whiteSpace=wrap;html=1;fontSize=28;fillColor=#bac8d3;strokeColor=#23445d;direction=south;" parent="1" vertex="1">
          <mxGeometry x="4480" y="46.480000000000004" width="320" height="53.52" as="geometry" />
        </mxCell>
        <mxCell id="VNUVc3ocm5papmvAgX4y-27" value="Spectrometer measurement" style="rounded=0;whiteSpace=wrap;html=1;labelBackgroundColor=none;fontSize=30;fillColor=#e1d5e7;strokeColor=#9673a6;" parent="1" vertex="1">
          <mxGeometry x="4480" y="-325.62" width="320" height="101" as="geometry" />
        </mxCell>
        <mxCell id="VNUVc3ocm5papmvAgX4y-101" style="edgeStyle=orthogonalEdgeStyle;rounded=0;orthogonalLoop=1;jettySize=auto;html=1;entryX=1;entryY=0.5;entryDx=0;entryDy=0;strokeWidth=10;endArrow=baseDash;endFill=0;strokeColor=#FF0000;startArrow=baseDash;startFill=0;fillColor=#f8cecc;" parent="1" source="VNUVc3ocm5papmvAgX4y-29" target="VNUVc3ocm5papmvAgX4y-100" edge="1">
          <mxGeometry relative="1" as="geometry" />
        </mxCell>
        <mxCell id="VNUVc3ocm5papmvAgX4y-29" value="&lt;font style=&quot;font-size: 28px;&quot;&gt;Battery pack&amp;nbsp; (3S)&lt;/font&gt;" style="rounded=0;whiteSpace=wrap;html=1;fillColor=#f8cecc;strokeColor=#b85450;fontSize=28;" parent="1" vertex="1">
          <mxGeometry x="4670" y="-590" width="187.64" height="90" as="geometry" />
        </mxCell>
        <mxCell id="VNUVc3ocm5papmvAgX4y-31" value="Iridium modem" style="rounded=0;whiteSpace=wrap;html=1;fontSize=28;fillColor=#bac8d3;strokeColor=#23445d;" parent="1" vertex="1">
          <mxGeometry x="4480" y="120" width="320" height="60" as="geometry" />
        </mxCell>
        <mxCell id="VNUVc3ocm5papmvAgX4y-32" value="Iridium antenna" style="rounded=0;whiteSpace=wrap;html=1;fontSize=28;fillColor=#bac8d3;strokeColor=#23445d;" parent="1" vertex="1">
          <mxGeometry x="4480" y="210" width="320" height="52" as="geometry" />
        </mxCell>
        <mxCell id="VNUVc3ocm5papmvAgX4y-33" value="Pressure sensors" style="rounded=0;whiteSpace=wrap;html=1;fillColor=#f5f5f5;strokeColor=#666666;fontSize=28;fontColor=#333333;" parent="1" vertex="1">
          <mxGeometry x="3716" y="-29.25" width="162" height="151.25" as="geometry" />
        </mxCell>
        <mxCell id="VNUVc3ocm5papmvAgX4y-34" value="Informed Data Selection" style="rounded=0;whiteSpace=wrap;html=1;fillColor=#dae8fc;strokeColor=#6c8ebf;fontSize=28;" parent="1" vertex="1">
          <mxGeometry x="4480" y="-184" width="320" height="103" as="geometry" />
        </mxCell>
        <mxCell id="VNUVc3ocm5papmvAgX4y-36" value="I&lt;sup&gt;2&lt;/sup&gt;C mux" style="rounded=0;whiteSpace=wrap;html=1;fillColor=#f5f5f5;strokeColor=#666666;fontSize=28;fontColor=#333333;" parent="1" vertex="1">
          <mxGeometry x="3916" y="-31" width="162" height="154" as="geometry" />
        </mxCell>
        <mxCell id="VNUVc3ocm5papmvAgX4y-37" value="6 axis IMU" style="rounded=0;whiteSpace=wrap;html=1;fillColor=#f5f5f5;strokeColor=#666666;fontSize=28;fontColor=#333333;" parent="1" vertex="1">
          <mxGeometry x="3716" y="224.5" width="362" height="57.5" as="geometry" />
        </mxCell>
        <mxCell id="VNUVc3ocm5papmvAgX4y-39" value="9 axis IMU" style="rounded=0;whiteSpace=wrap;html=1;fillColor=#f5f5f5;strokeColor=#666666;fontSize=28;fontColor=#333333;" parent="1" vertex="1">
          <mxGeometry x="3716" y="151.5" width="362" height="52.5" as="geometry" />
        </mxCell>
        <mxCell id="VNUVc3ocm5papmvAgX4y-42" value="&lt;font style=&quot;font-size: 28px;&quot;&gt;HV switch&lt;/font&gt;" style="rounded=0;whiteSpace=wrap;html=1;fillColor=#f8cecc;strokeColor=#b85450;fontSize=28;" parent="1" vertex="1">
          <mxGeometry x="4290" y="-460" width="182.8" height="72" as="geometry" />
        </mxCell>
        <mxCell id="VNUVc3ocm5papmvAgX4y-41" value="3.3V regulator" style="rounded=0;whiteSpace=wrap;html=1;fillColor=#f8cecc;strokeColor=#b85450;fontSize=28;" parent="1" vertex="1">
          <mxGeometry x="3640" y="-359.25" width="439" height="53" as="geometry" />
        </mxCell>
        <mxCell id="VNUVc3ocm5papmvAgX4y-100" value="&lt;font style=&quot;font-size: 28px;&quot;&gt;3S battery balance, charge and protection&lt;/font&gt;" style="rounded=0;whiteSpace=wrap;html=1;fillColor=#f8cecc;strokeColor=#b85450;fontSize=28;" parent="1" vertex="1">
          <mxGeometry x="4290" y="-590" width="317.64" height="90" as="geometry" />
        </mxCell>
        <mxCell id="VNUVc3ocm5papmvAgX4y-102" style="edgeStyle=orthogonalEdgeStyle;rounded=0;orthogonalLoop=1;jettySize=auto;html=1;exitX=0.219;exitY=1.011;exitDx=0;exitDy=0;exitPerimeter=0;strokeWidth=10;endArrow=baseDash;endFill=0;strokeColor=#FF0000;startArrow=baseDash;startFill=0;" parent="1" edge="1">
          <mxGeometry relative="1" as="geometry">
            <mxPoint x="4090" y="-499" as="sourcePoint" />
            <mxPoint x="4090" y="-460" as="targetPoint" />
            <Array as="points">
              <mxPoint x="4090" y="-502" />
              <mxPoint x="4090" y="-502" />
            </Array>
          </mxGeometry>
        </mxCell>
        <mxCell id="VNUVc3ocm5papmvAgX4y-30" value="&lt;font style=&quot;font-size: 28px;&quot;&gt;Battery and protection Circuitry (&lt;/font&gt;1S)" style="rounded=0;whiteSpace=wrap;html=1;fillColor=#f8cecc;strokeColor=#b85450;fontSize=28;" parent="1" vertex="1">
          <mxGeometry x="3640" y="-590" width="600" height="90" as="geometry" />
        </mxCell>
        <mxCell id="VNUVc3ocm5papmvAgX4y-23" value="Single cell LiPo charger" style="rounded=0;whiteSpace=wrap;html=1;fillColor=#f8cecc;strokeColor=#b85450;fontSize=28;" parent="1" vertex="1">
          <mxGeometry x="3900" y="-460" width="350" height="65" as="geometry" />
        </mxCell>
        <mxCell id="VNUVc3ocm5papmvAgX4y-107" style="edgeStyle=orthogonalEdgeStyle;rounded=0;orthogonalLoop=1;jettySize=auto;html=1;strokeWidth=10;endArrow=baseDash;endFill=0;fillColor=#f8cecc;strokeColor=#FF0000;entryX=0;entryY=0.5;entryDx=0;entryDy=0;" parent="1" edge="1">
          <mxGeometry relative="1" as="geometry">
            <mxPoint x="3677" y="-240" as="sourcePoint" />
            <mxPoint x="3716" y="323" as="targetPoint" />
            <Array as="points">
              <mxPoint x="3677" y="-220" />
              <mxPoint x="3677" y="323" />
              <mxPoint x="3716" y="323" />
            </Array>
          </mxGeometry>
        </mxCell>
        <mxCell id="crj6zKZZUfJQIS7Cw5VU-1" value="&lt;div style=&quot;font-size: 17px;&quot;&gt;Three 18650 batteries tabbed in series&lt;/div&gt;" style="rounded=0;whiteSpace=wrap;html=1;fontSize=17;" parent="1" vertex="1">
          <mxGeometry x="4500.5" y="853" width="190" height="126" as="geometry" />
        </mxCell>
        <mxCell id="crj6zKZZUfJQIS7Cw5VU-2" value="Battery protection circuity" style="rounded=0;whiteSpace=wrap;html=1;fontSize=17;" parent="1" vertex="1">
          <mxGeometry x="4275.5" y="853" width="120" height="106" as="geometry" />
        </mxCell>
        <mxCell id="crj6zKZZUfJQIS7Cw5VU-3" value="" style="endArrow=none;startArrow=none;html=1;entryX=-0.001;entryY=0.148;entryDx=0;entryDy=0;entryPerimeter=0;fillColor=#f8cecc;strokeColor=#b85450;startFill=0;endFill=0;strokeWidth=4;exitX=1.007;exitY=0.176;exitDx=0;exitDy=0;exitPerimeter=0;" parent="1" source="crj6zKZZUfJQIS7Cw5VU-2" target="crj6zKZZUfJQIS7Cw5VU-1" edge="1">
          <mxGeometry width="50" height="50" relative="1" as="geometry">
            <mxPoint x="4401.5" y="869" as="sourcePoint" />
            <mxPoint x="4440.5" y="903" as="targetPoint" />
          </mxGeometry>
        </mxCell>
        <mxCell id="crj6zKZZUfJQIS7Cw5VU-4" value="" style="endArrow=none;startArrow=none;html=1;entryX=0.005;entryY=0.365;entryDx=0;entryDy=0;exitX=1;exitY=0.75;exitDx=0;exitDy=0;startFill=0;endFill=0;fillColor=#f5f5f5;strokeColor=#666666;endSize=6;strokeWidth=4;entryPerimeter=0;" parent="1" edge="1">
          <mxGeometry width="50" height="50" relative="1" as="geometry">
            <mxPoint x="4395.5" y="877" as="sourcePoint" />
            <mxPoint x="4501.45" y="877.9899999999998" as="targetPoint" />
          </mxGeometry>
        </mxCell>
        <mxCell id="crj6zKZZUfJQIS7Cw5VU-5" value="Cell +" style="text;html=1;align=center;verticalAlign=middle;resizable=0;points=[];autosize=1;" parent="1" vertex="1">
          <mxGeometry x="4417.5" y="855" width="50" height="20" as="geometry" />
        </mxCell>
        <mxCell id="crj6zKZZUfJQIS7Cw5VU-7" value="Pack +" style="text;html=1;align=center;verticalAlign=middle;resizable=0;points=[];autosize=1;" parent="1" vertex="1">
          <mxGeometry x="4221.5" y="852" width="50" height="20" as="geometry" />
        </mxCell>
        <mxCell id="crj6zKZZUfJQIS7Cw5VU-8" value="Pack -" style="text;html=1;align=center;verticalAlign=middle;resizable=0;points=[];autosize=1;" parent="1" vertex="1">
          <mxGeometry x="4221.5" y="902" width="50" height="20" as="geometry" />
        </mxCell>
        <mxCell id="crj6zKZZUfJQIS7Cw5VU-9" value="Cell -" style="text;html=1;align=center;verticalAlign=middle;resizable=0;points=[];autosize=1;" parent="1" vertex="1">
          <mxGeometry x="4421.5" y="869" width="50" height="30" as="geometry" />
        </mxCell>
        <mxCell id="crj6zKZZUfJQIS7Cw5VU-10" value="" style="endArrow=none;startArrow=none;html=1;entryX=-0.001;entryY=0.148;entryDx=0;entryDy=0;entryPerimeter=0;fillColor=#f8cecc;strokeColor=#b85450;startFill=0;endFill=0;strokeWidth=4;exitX=1.007;exitY=0.176;exitDx=0;exitDy=0;exitPerimeter=0;" parent="1" edge="1">
          <mxGeometry width="50" height="50" relative="1" as="geometry">
            <mxPoint x="4396.55" y="903.5" as="sourcePoint" />
            <mxPoint x="4500.55" y="903.5" as="targetPoint" />
          </mxGeometry>
        </mxCell>
        <mxCell id="crj6zKZZUfJQIS7Cw5VU-11" value="" style="endArrow=none;startArrow=none;html=1;entryX=0.005;entryY=0.365;entryDx=0;entryDy=0;exitX=1;exitY=0.75;exitDx=0;exitDy=0;startFill=0;endFill=0;fillColor=#f5f5f5;strokeColor=#666666;endSize=6;strokeWidth=4;entryPerimeter=0;" parent="1" edge="1">
          <mxGeometry width="50" height="50" relative="1" as="geometry">
            <mxPoint x="4395.55" y="908.5" as="sourcePoint" />
            <mxPoint x="4501.5" y="909.4899999999998" as="targetPoint" />
          </mxGeometry>
        </mxCell>
        <mxCell id="crj6zKZZUfJQIS7Cw5VU-12" value="Cell +" style="text;html=1;align=center;verticalAlign=middle;resizable=0;points=[];autosize=1;" parent="1" vertex="1">
          <mxGeometry x="4417.55" y="886.5" width="50" height="20" as="geometry" />
        </mxCell>
        <mxCell id="crj6zKZZUfJQIS7Cw5VU-13" value="Cell -" style="text;html=1;align=center;verticalAlign=middle;resizable=0;points=[];autosize=1;" parent="1" vertex="1">
          <mxGeometry x="4421.55" y="900.5" width="50" height="30" as="geometry" />
        </mxCell>
        <mxCell id="crj6zKZZUfJQIS7Cw5VU-14" value="" style="endArrow=none;startArrow=none;html=1;entryX=-0.001;entryY=0.148;entryDx=0;entryDy=0;entryPerimeter=0;fillColor=#f8cecc;strokeColor=#b85450;startFill=0;endFill=0;strokeWidth=4;exitX=1.007;exitY=0.176;exitDx=0;exitDy=0;exitPerimeter=0;" parent="1" edge="1">
          <mxGeometry width="50" height="50" relative="1" as="geometry">
            <mxPoint x="4396.55" y="939" as="sourcePoint" />
            <mxPoint x="4500.55" y="939" as="targetPoint" />
          </mxGeometry>
        </mxCell>
        <mxCell id="crj6zKZZUfJQIS7Cw5VU-15" value="" style="endArrow=none;startArrow=none;html=1;entryX=0.005;entryY=0.365;entryDx=0;entryDy=0;exitX=1;exitY=0.75;exitDx=0;exitDy=0;startFill=0;endFill=0;fillColor=#f5f5f5;strokeColor=#666666;endSize=6;strokeWidth=4;entryPerimeter=0;" parent="1" edge="1">
          <mxGeometry width="50" height="50" relative="1" as="geometry">
            <mxPoint x="4395.55" y="944" as="sourcePoint" />
            <mxPoint x="4501.5" y="944.9899999999998" as="targetPoint" />
          </mxGeometry>
        </mxCell>
        <mxCell id="crj6zKZZUfJQIS7Cw5VU-16" value="Cell +" style="text;html=1;align=center;verticalAlign=middle;resizable=0;points=[];autosize=1;" parent="1" vertex="1">
          <mxGeometry x="4417.55" y="922" width="50" height="20" as="geometry" />
        </mxCell>
        <mxCell id="crj6zKZZUfJQIS7Cw5VU-17" value="Cell -" style="text;html=1;align=center;verticalAlign=middle;resizable=0;points=[];autosize=1;" parent="1" vertex="1">
          <mxGeometry x="4421.55" y="936" width="50" height="30" as="geometry" />
        </mxCell>
        <mxCell id="crj6zKZZUfJQIS7Cw5VU-18" value="" style="endArrow=none;html=1;strokeWidth=4;fillColor=#f5f5f5;strokeColor=#666666;" parent="1" edge="1">
          <mxGeometry width="50" height="50" relative="1" as="geometry">
            <mxPoint x="4161.5" y="899" as="sourcePoint" />
            <mxPoint x="4271.5" y="899" as="targetPoint" />
          </mxGeometry>
        </mxCell>
        <mxCell id="crj6zKZZUfJQIS7Cw5VU-21" value="" style="ellipse;whiteSpace=wrap;html=1;" parent="1" vertex="1">
          <mxGeometry x="4226.5" y="874" width="10" height="10" as="geometry" />
        </mxCell>
        <mxCell id="crj6zKZZUfJQIS7Cw5VU-22" value="" style="endArrow=none;html=1;strokeWidth=4;exitX=0;exitY=0.25;exitDx=0;exitDy=0;fillColor=#f8cecc;strokeColor=#b85450;" parent="1" source="crj6zKZZUfJQIS7Cw5VU-2" edge="1">
          <mxGeometry width="50" height="50" relative="1" as="geometry">
            <mxPoint x="4177.5" y="984" as="sourcePoint" />
            <mxPoint x="4231.5" y="879" as="targetPoint" />
          </mxGeometry>
        </mxCell>
        <mxCell id="crj6zKZZUfJQIS7Cw5VU-23" value="" style="endArrow=none;html=1;strokeWidth=1;" parent="1" edge="1">
          <mxGeometry width="50" height="50" relative="1" as="geometry">
            <mxPoint x="4196.5" y="871" as="sourcePoint" />
            <mxPoint x="4226.5" y="841" as="targetPoint" />
          </mxGeometry>
        </mxCell>
        <mxCell id="crj6zKZZUfJQIS7Cw5VU-24" value="" style="ellipse;whiteSpace=wrap;html=1;" parent="1" vertex="1">
          <mxGeometry x="4196.5" y="872" width="10" height="10" as="geometry" />
        </mxCell>
        <mxCell id="crj6zKZZUfJQIS7Cw5VU-25" value="" style="endArrow=none;html=1;strokeWidth=4;fillColor=#f8cecc;strokeColor=#b85450;exitX=0.5;exitY=0;exitDx=0;exitDy=0;entryX=1;entryY=0.321;entryDx=0;entryDy=0;entryPerimeter=0;" parent="1" source="crj6zKZZUfJQIS7Cw5VU-24" target="rmLvAz5VPHVxDJYR2BQ0-11" edge="1">
          <mxGeometry width="50" height="50" relative="1" as="geometry">
            <mxPoint x="4175.5" y="873.75" as="sourcePoint" />
            <mxPoint x="4176.5" y="834" as="targetPoint" />
          </mxGeometry>
        </mxCell>
        <mxCell id="VNUVc3ocm5papmvAgX4y-38" value="High-g accelerometer" style="rounded=0;whiteSpace=wrap;html=1;fillColor=#f5f5f5;strokeColor=#666666;fontSize=28;fontColor=#333333;" parent="1" vertex="1">
          <mxGeometry x="3716" y="300" width="364" height="50" as="geometry" />
        </mxCell>
        <mxCell id="6BBjHPVcz3refNzZEbLB-4" value="" style="endArrow=baseDash;html=1;rounded=1;fontSize=29;strokeColor=#000000;strokeWidth=9;endFill=0;entryX=0;entryY=0.5;entryDx=0;entryDy=0;startArrow=baseDash;startFill=0;" parent="1" target="6BBjHPVcz3refNzZEbLB-2" edge="1">
          <mxGeometry width="50" height="50" relative="1" as="geometry">
            <mxPoint x="4370" y="314" as="sourcePoint" />
            <mxPoint x="4431.77" y="322.5" as="targetPoint" />
            <Array as="points" />
          </mxGeometry>
        </mxCell>
        <mxCell id="VNUVc3ocm5papmvAgX4y-16" value="Feather M4" style="rounded=0;whiteSpace=wrap;html=1;fillColor=#f5f5f5;fontSize=28;fontColor=#333333;strokeColor=#666666;" parent="1" vertex="1">
          <mxGeometry x="4190" y="-360" width="180" height="710" as="geometry" />
        </mxCell>
        <mxCell id="6BBjHPVcz3refNzZEbLB-2" value="KREM separation detect" style="rounded=0;whiteSpace=wrap;html=1;fontSize=28;fillColor=#bac8d3;strokeColor=#23445d;" parent="1" vertex="1">
          <mxGeometry x="4480" y="277" width="320" height="73" as="geometry" />
        </mxCell>
        <mxCell id="6BBjHPVcz3refNzZEbLB-6" value="KREPE-1" style="text;html=1;strokeColor=none;fillColor=none;align=center;verticalAlign=middle;whiteSpace=wrap;rounded=0;fontSize=120;" parent="1" vertex="1">
          <mxGeometry x="1110" y="-736.24" width="580" height="215.75" as="geometry" />
        </mxCell>
        <mxCell id="6BBjHPVcz3refNzZEbLB-8" value="KREPE-2" style="text;html=1;strokeColor=none;fillColor=none;align=center;verticalAlign=middle;whiteSpace=wrap;rounded=0;fontSize=120;" parent="1" vertex="1">
          <mxGeometry x="3954.27" y="-830" width="580" height="215.75" as="geometry" />
        </mxCell>
        <mxCell id="6BBjHPVcz3refNzZEbLB-9" value="KARS (rocksat 2023) RIP" style="text;html=1;strokeColor=none;fillColor=none;align=center;verticalAlign=middle;whiteSpace=wrap;rounded=0;fontSize=120;" parent="1" vertex="1">
          <mxGeometry x="2505" y="-782.8699999999999" width="660" height="215.75" as="geometry" />
        </mxCell>
        <mxCell id="RxBzn5ZrKJnADCytJNZN-1" value="&lt;span style=&quot;font-size: 28px;&quot;&gt;Teensy 3.5&lt;/span&gt;" style="rounded=0;whiteSpace=wrap;html=1;fillColor=#d5e8d4;strokeColor=#82b366;fontSize=28;" parent="1" vertex="1">
          <mxGeometry x="1350" y="700" width="139" height="244.5" as="geometry" />
        </mxCell>
        <mxCell id="RxBzn5ZrKJnADCytJNZN-2" value="Safety&amp;nbsp;&lt;br&gt;processor" style="rounded=0;whiteSpace=wrap;html=1;fillColor=#d5e8d4;strokeColor=#82b366;fontSize=28;" parent="1" vertex="1">
          <mxGeometry x="1350" y="960.5" width="140" height="198" as="geometry" />
        </mxCell>
        <mxCell id="RxBzn5ZrKJnADCytJNZN-3" value="SD storage" style="rounded=0;whiteSpace=wrap;html=1;fontSize=28;fillColor=#dae8fc;strokeColor=#6c8ebf;" parent="1" vertex="1">
          <mxGeometry x="1585" y="893.5" width="170" height="50.5" as="geometry" />
        </mxCell>
        <mxCell id="RxBzn5ZrKJnADCytJNZN-5" value="&lt;span style=&quot;font-size: 28px;&quot;&gt;Activation contacts&lt;/span&gt;" style="rounded=0;whiteSpace=wrap;html=1;fontSize=14;fillColor=#e1d5e7;strokeColor=#9673a6;" parent="1" vertex="1">
          <mxGeometry x="870" y="700" width="280" height="40" as="geometry" />
        </mxCell>
        <mxCell id="RxBzn5ZrKJnADCytJNZN-6" value="&lt;font style=&quot;font-size: 28px;&quot;&gt;Debug radio&lt;/font&gt;" style="rounded=0;whiteSpace=wrap;html=1;fontSize=14;fillColor=#f5f5f5;strokeColor=#666666;fontColor=#333333;" parent="1" vertex="1">
          <mxGeometry x="1545" y="759" width="195" height="41" as="geometry" />
        </mxCell>
        <mxCell id="RxBzn5ZrKJnADCytJNZN-7" value="Iridium Modem" style="rounded=0;whiteSpace=wrap;html=1;fontSize=28;fillColor=#bac8d3;strokeColor=#23445d;" parent="1" vertex="1">
          <mxGeometry x="1545" y="700" width="195" height="40" as="geometry" />
        </mxCell>
        <mxCell id="RxBzn5ZrKJnADCytJNZN-9" value="TC to digital" style="rounded=0;whiteSpace=wrap;html=1;fillColor=#fff2cc;strokeColor=#d6b656;fontSize=28;" parent="1" vertex="1">
          <mxGeometry x="870" y="759.26" width="189" height="40.49" as="geometry" />
        </mxCell>
        <mxCell id="RxBzn5ZrKJnADCytJNZN-10" value="&lt;font style=&quot;font-size: 28px;&quot;&gt;Battery Pack and Protection Circuitry&lt;/font&gt;" style="rounded=0;whiteSpace=wrap;html=1;fillColor=#f8cecc;strokeColor=#b85450;fontSize=28;" parent="1" vertex="1">
          <mxGeometry x="869" y="815" width="371" height="100" as="geometry" />
        </mxCell>
        <mxCell id="RxBzn5ZrKJnADCytJNZN-11" style="edgeStyle=orthogonalEdgeStyle;rounded=0;orthogonalLoop=1;jettySize=auto;html=1;entryX=1;entryY=0.5;entryDx=0;entryDy=0;strokeWidth=10;endArrow=baseDash;endFill=0;startArrow=baseDash;startFill=0;strokeColor=#00CC00;" parent="1" edge="1">
          <mxGeometry relative="1" as="geometry">
            <mxPoint x="1340" y="2123.5" as="sourcePoint" />
            <mxPoint x="1229" y="2123.5" as="targetPoint" />
            <Array as="points">
              <mxPoint x="1310" y="2123.5" />
              <mxPoint x="1310" y="2123.5" />
            </Array>
          </mxGeometry>
        </mxCell>
        <mxCell id="RxBzn5ZrKJnADCytJNZN-13" style="edgeStyle=orthogonalEdgeStyle;rounded=0;orthogonalLoop=1;jettySize=auto;html=1;exitX=0.197;exitY=0.98;exitDx=0;exitDy=0;exitPerimeter=0;strokeWidth=10;endArrow=baseDash;endFill=0;strokeColor=#FF0000;startArrow=baseDash;startFill=0;" parent="1" edge="1">
          <mxGeometry relative="1" as="geometry">
            <mxPoint x="1009" y="1723.4999999999998" as="sourcePoint" />
            <mxPoint x="1009" y="1754.4999999999998" as="targetPoint" />
          </mxGeometry>
        </mxCell>
        <mxCell id="RxBzn5ZrKJnADCytJNZN-14" style="edgeStyle=orthogonalEdgeStyle;rounded=0;orthogonalLoop=1;jettySize=auto;html=1;entryX=1;entryY=0.5;entryDx=0;entryDy=0;strokeWidth=10;endArrow=baseDash;endFill=0;startArrow=baseDash;startFill=0;strokeColor=#007fff;" parent="1" edge="1">
          <mxGeometry relative="1" as="geometry">
            <mxPoint x="1340" y="2221.5" as="sourcePoint" />
            <mxPoint x="1229" y="2221.5" as="targetPoint" />
            <Array as="points">
              <mxPoint x="1310" y="2221.5" />
              <mxPoint x="1310" y="2221.5" />
            </Array>
          </mxGeometry>
        </mxCell>
        <mxCell id="RxBzn5ZrKJnADCytJNZN-16" style="edgeStyle=orthogonalEdgeStyle;rounded=0;orthogonalLoop=1;jettySize=auto;html=1;entryX=1;entryY=0.5;entryDx=0;entryDy=0;strokeWidth=10;endArrow=baseDash;endFill=0;startArrow=baseDash;startFill=0;strokeColor=#00CC00;" parent="1" edge="1">
          <mxGeometry relative="1" as="geometry">
            <mxPoint x="1340" y="2059.5" as="sourcePoint" />
            <mxPoint x="1229" y="2059.5" as="targetPoint" />
            <Array as="points">
              <mxPoint x="1310" y="2059.5" />
              <mxPoint x="1310" y="2059.5" />
            </Array>
          </mxGeometry>
        </mxCell>
        <mxCell id="RxBzn5ZrKJnADCytJNZN-18" style="edgeStyle=orthogonalEdgeStyle;rounded=0;orthogonalLoop=1;jettySize=auto;html=1;entryX=1;entryY=0.5;entryDx=0;entryDy=0;strokeWidth=10;endArrow=baseDash;endFill=0;startArrow=baseDash;startFill=0;strokeColor=#007fff;" parent="1" source="RxBzn5ZrKJnADCytJNZN-79" target="RxBzn5ZrKJnADCytJNZN-55" edge="1">
          <mxGeometry relative="1" as="geometry">
            <Array as="points">
              <mxPoint x="1310" y="1857.4999999999998" />
              <mxPoint x="1310" y="1857.4999999999998" />
            </Array>
          </mxGeometry>
        </mxCell>
        <mxCell id="RxBzn5ZrKJnADCytJNZN-19" style="edgeStyle=orthogonalEdgeStyle;rounded=0;orthogonalLoop=1;jettySize=auto;html=1;entryX=0.5;entryY=1;entryDx=0;entryDy=0;exitX=0.996;exitY=0.052;exitDx=0;exitDy=0;exitPerimeter=0;strokeWidth=10;endArrow=none;endFill=0;startArrow=none;startFill=0;" parent="1" source="RxBzn5ZrKJnADCytJNZN-79" target="RxBzn5ZrKJnADCytJNZN-70" edge="1">
          <mxGeometry relative="1" as="geometry" />
        </mxCell>
        <mxCell id="RxBzn5ZrKJnADCytJNZN-23" style="edgeStyle=orthogonalEdgeStyle;rounded=0;orthogonalLoop=1;jettySize=auto;html=1;exitX=0.181;exitY=0.984;exitDx=0;exitDy=0;exitPerimeter=0;strokeWidth=10;endArrow=baseDash;endFill=0;strokeColor=#FF0000;startArrow=baseDash;startFill=0;" parent="1" edge="1">
          <mxGeometry relative="1" as="geometry">
            <Array as="points" />
            <mxPoint x="1010.8199999999999" y="1615.0599999999995" as="sourcePoint" />
            <mxPoint x="1009.9999999999998" y="1656.5" as="targetPoint" />
          </mxGeometry>
        </mxCell>
        <mxCell id="RxBzn5ZrKJnADCytJNZN-25" value="" style="edgeStyle=orthogonalEdgeStyle;rounded=0;orthogonalLoop=1;jettySize=auto;html=1;strokeWidth=10;strokeColor=#FF00FF;endArrow=baseDash;endFill=0;" parent="1" source="RxBzn5ZrKJnADCytJNZN-63" target="RxBzn5ZrKJnADCytJNZN-64" edge="1">
          <mxGeometry relative="1" as="geometry" />
        </mxCell>
        <mxCell id="RxBzn5ZrKJnADCytJNZN-26" style="edgeStyle=orthogonalEdgeStyle;rounded=0;orthogonalLoop=1;jettySize=auto;html=1;entryX=0;entryY=0.5;entryDx=0;entryDy=0;exitX=0.088;exitY=0.99;exitDx=0;exitDy=0;exitPerimeter=0;strokeWidth=10;endArrow=baseDash;endFill=0;fillColor=#f8cecc;strokeColor=#FF0000;" parent="1" source="RxBzn5ZrKJnADCytJNZN-71" target="RxBzn5ZrKJnADCytJNZN-55" edge="1">
          <mxGeometry relative="1" as="geometry" />
        </mxCell>
        <mxCell id="RxBzn5ZrKJnADCytJNZN-28" style="edgeStyle=orthogonalEdgeStyle;rounded=0;orthogonalLoop=1;jettySize=auto;html=1;entryX=0;entryY=0.5;entryDx=0;entryDy=0;exitX=0.086;exitY=0.978;exitDx=0;exitDy=0;exitPerimeter=0;strokeWidth=10;endArrow=baseDash;endFill=0;fillColor=#f8cecc;strokeColor=#FF0000;" parent="1" source="RxBzn5ZrKJnADCytJNZN-71" target="RxBzn5ZrKJnADCytJNZN-56" edge="1">
          <mxGeometry relative="1" as="geometry">
            <mxPoint x="780" y="1906.4999999999998" as="sourcePoint" />
            <mxPoint x="817" y="1954.4999999999998" as="targetPoint" />
          </mxGeometry>
        </mxCell>
        <mxCell id="RxBzn5ZrKJnADCytJNZN-29" style="edgeStyle=orthogonalEdgeStyle;rounded=0;orthogonalLoop=1;jettySize=auto;html=1;entryX=0;entryY=0.5;entryDx=0;entryDy=0;strokeWidth=10;endArrow=baseDash;endFill=0;fillColor=#f8cecc;strokeColor=#FF0000;" parent="1" target="RxBzn5ZrKJnADCytJNZN-54" edge="1">
          <mxGeometry relative="1" as="geometry">
            <mxPoint x="827" y="2018.5" as="sourcePoint" />
            <mxPoint x="827" y="2144.5" as="targetPoint" />
            <Array as="points">
              <mxPoint x="827" y="2217.5" />
            </Array>
          </mxGeometry>
        </mxCell>
        <mxCell id="RxBzn5ZrKJnADCytJNZN-31" style="edgeStyle=orthogonalEdgeStyle;rounded=0;orthogonalLoop=1;jettySize=auto;html=1;strokeWidth=10;endArrow=baseDash;endFill=0;fillColor=#f8cecc;strokeColor=#FF0000;entryX=0;entryY=0.5;entryDx=0;entryDy=0;" parent="1" target="RxBzn5ZrKJnADCytJNZN-69" edge="1">
          <mxGeometry relative="1" as="geometry">
            <mxPoint x="827" y="1801" as="sourcePoint" />
            <mxPoint x="760" y="1908.4523809523807" as="targetPoint" />
            <Array as="points">
              <mxPoint x="827" y="2055.5" />
            </Array>
          </mxGeometry>
        </mxCell>
        <mxCell id="RxBzn5ZrKJnADCytJNZN-33" value="" style="endArrow=none;html=1;rounded=1;fontSize=29;strokeColor=#009900;strokeWidth=9;endFill=0;" parent="1" edge="1">
          <mxGeometry width="50" height="50" relative="1" as="geometry">
            <mxPoint x="1745.0900000000004" y="2161" as="sourcePoint" />
            <mxPoint x="1811.27" y="2161" as="targetPoint" />
          </mxGeometry>
        </mxCell>
        <mxCell id="RxBzn5ZrKJnADCytJNZN-34" value="SPI" style="text;html=1;align=center;verticalAlign=middle;resizable=0;points=[];autosize=1;strokeColor=none;fillColor=none;fontSize=28;" parent="1" vertex="1">
          <mxGeometry x="1646.0900000000004" y="2164" width="70" height="50" as="geometry" />
        </mxCell>
        <mxCell id="RxBzn5ZrKJnADCytJNZN-35" value="" style="endArrow=none;html=1;rounded=1;fontSize=29;strokeColor=#007FFF;strokeWidth=9;exitX=-0.029;exitY=-0.059;exitDx=0;exitDy=0;exitPerimeter=0;entryX=0.912;entryY=-0.06;entryDx=0;entryDy=0;entryPerimeter=0;endFill=0;" parent="1" edge="1">
          <mxGeometry width="50" height="50" relative="1" as="geometry">
            <mxPoint x="1650.06" y="2161.0499999999997" as="sourcePoint" />
            <mxPoint x="1715.9300000000003" y="2160.9999999999995" as="targetPoint" />
          </mxGeometry>
        </mxCell>
        <mxCell id="RxBzn5ZrKJnADCytJNZN-36" value="I2C" style="text;html=1;align=center;verticalAlign=middle;resizable=0;points=[];autosize=1;strokeColor=none;fillColor=none;fontSize=28;" parent="1" vertex="1">
          <mxGeometry x="1742.0900000000004" y="2163" width="70" height="50" as="geometry" />
        </mxCell>
        <mxCell id="RxBzn5ZrKJnADCytJNZN-37" value="" style="endArrow=none;html=1;rounded=1;fontSize=29;strokeColor=#FF8000;strokeWidth=9;endFill=0;" parent="1" edge="1">
          <mxGeometry width="50" height="50" relative="1" as="geometry">
            <mxPoint x="1846" y="2161" as="sourcePoint" />
            <mxPoint x="1913" y="2161" as="targetPoint" />
          </mxGeometry>
        </mxCell>
        <mxCell id="RxBzn5ZrKJnADCytJNZN-38" value="UART" style="text;html=1;align=center;verticalAlign=middle;resizable=0;points=[];autosize=1;strokeColor=none;fillColor=none;fontSize=28;" parent="1" vertex="1">
          <mxGeometry x="1828.0900000000004" y="2161" width="100" height="50" as="geometry" />
        </mxCell>
        <mxCell id="RxBzn5ZrKJnADCytJNZN-39" value="" style="endArrow=none;html=1;rounded=1;fontSize=29;strokeColor=#000000;strokeWidth=9;endFill=0;" parent="1" edge="1">
          <mxGeometry width="50" height="50" relative="1" as="geometry">
            <mxPoint x="1844.6299999999999" y="2241.79" as="sourcePoint" />
            <mxPoint x="1911.54" y="2241.79" as="targetPoint" />
          </mxGeometry>
        </mxCell>
        <mxCell id="RxBzn5ZrKJnADCytJNZN-40" value="GPIO" style="text;html=1;align=center;verticalAlign=middle;resizable=0;points=[];autosize=1;strokeColor=none;fillColor=none;fontSize=28;" parent="1" vertex="1">
          <mxGeometry x="1832.1800000000003" y="2248" width="90" height="50" as="geometry" />
        </mxCell>
        <mxCell id="RxBzn5ZrKJnADCytJNZN-41" value="" style="endArrow=none;html=1;rounded=1;fontSize=29;strokeColor=#CC00CC;strokeWidth=9;endFill=0;" parent="1" edge="1">
          <mxGeometry width="50" height="50" relative="1" as="geometry">
            <mxPoint x="1648.09" y="2242.83" as="sourcePoint" />
            <mxPoint x="1714.27" y="2242.83" as="targetPoint" />
          </mxGeometry>
        </mxCell>
        <mxCell id="RxBzn5ZrKJnADCytJNZN-42" value="RF" style="text;html=1;align=center;verticalAlign=middle;resizable=0;points=[];autosize=1;strokeColor=none;fillColor=none;fontSize=28;" parent="1" vertex="1">
          <mxGeometry x="1648.09" y="2250" width="60" height="50" as="geometry" />
        </mxCell>
        <mxCell id="RxBzn5ZrKJnADCytJNZN-43" value="" style="endArrow=none;html=1;rounded=1;fontSize=29;strokeColor=#FF0000;strokeWidth=9;endFill=0;" parent="1" edge="1">
          <mxGeometry width="50" height="50" relative="1" as="geometry">
            <mxPoint x="1745.180000000002" y="2241.83" as="sourcePoint" />
            <mxPoint x="1811" y="2241.83" as="targetPoint" />
          </mxGeometry>
        </mxCell>
        <mxCell id="RxBzn5ZrKJnADCytJNZN-44" value="Power" style="text;html=1;align=center;verticalAlign=middle;resizable=0;points=[];autosize=1;strokeColor=none;fillColor=none;fontSize=28;" parent="1" vertex="1">
          <mxGeometry x="1727.1800000000003" y="2250" width="100" height="50" as="geometry" />
        </mxCell>
        <mxCell id="RxBzn5ZrKJnADCytJNZN-45" style="edgeStyle=orthogonalEdgeStyle;rounded=0;orthogonalLoop=1;jettySize=auto;html=1;strokeWidth=10;endArrow=baseDash;endFill=0;fillColor=#f8cecc;strokeColor=#FF0000;entryX=1;entryY=0.5;entryDx=0;entryDy=0;" parent="1" target="RxBzn5ZrKJnADCytJNZN-63" edge="1">
          <mxGeometry relative="1" as="geometry">
            <mxPoint x="1990" y="1733.4099999999999" as="sourcePoint" />
            <mxPoint x="1950" y="2357.5" as="targetPoint" />
            <Array as="points">
              <mxPoint x="1990" y="1859" />
            </Array>
          </mxGeometry>
        </mxCell>
        <mxCell id="RxBzn5ZrKJnADCytJNZN-50" value="" style="edgeStyle=orthogonalEdgeStyle;rounded=0;orthogonalLoop=1;jettySize=auto;html=1;entryX=1.011;entryY=0.133;entryDx=0;entryDy=0;entryPerimeter=0;endArrow=baseDash;endFill=0;startArrow=baseDash;startFill=0;strokeWidth=10;strokeColor=#FF9933;" parent="1" edge="1">
          <mxGeometry relative="1" as="geometry">
            <mxPoint x="1630" y="1854.5" as="sourcePoint" />
            <mxPoint x="1522" y="1854.5" as="targetPoint" />
          </mxGeometry>
        </mxCell>
        <mxCell id="RxBzn5ZrKJnADCytJNZN-51" value="&lt;font style=&quot;font-size: 28px;&quot;&gt;Primary activation switch&lt;/font&gt;" style="rounded=0;whiteSpace=wrap;html=1;fillColor=#f8cecc;strokeColor=#b85450;fontSize=28;" parent="1" vertex="1">
          <mxGeometry x="790" y="1656.5" width="440" height="65" as="geometry" />
        </mxCell>
        <mxCell id="RxBzn5ZrKJnADCytJNZN-52" style="edgeStyle=orthogonalEdgeStyle;rounded=0;orthogonalLoop=1;jettySize=auto;html=1;strokeWidth=10;endArrow=baseDash;endFill=0;startArrow=baseDash;startFill=0;" parent="1" edge="1">
          <mxGeometry relative="1" as="geometry">
            <mxPoint x="1340" y="1786.4999999999998" as="sourcePoint" />
            <mxPoint x="1230" y="1786.4999999999998" as="targetPoint" />
            <Array as="points">
              <mxPoint x="1310" y="1786.4999999999998" />
              <mxPoint x="1310" y="1786.4999999999998" />
            </Array>
          </mxGeometry>
        </mxCell>
        <mxCell id="RxBzn5ZrKJnADCytJNZN-53" style="edgeStyle=orthogonalEdgeStyle;rounded=0;orthogonalLoop=1;jettySize=auto;html=1;entryX=1;entryY=0.5;entryDx=0;entryDy=0;strokeWidth=10;endArrow=baseDash;endFill=0;startArrow=baseDash;startFill=0;strokeColor=#007fff;" parent="1" edge="1">
          <mxGeometry relative="1" as="geometry">
            <mxPoint x="1340" y="1919.4999999999998" as="sourcePoint" />
            <mxPoint x="1229" y="1919.4999999999998" as="targetPoint" />
            <Array as="points">
              <mxPoint x="1310" y="1919.4999999999998" />
              <mxPoint x="1310" y="1919.4999999999998" />
            </Array>
          </mxGeometry>
        </mxCell>
        <mxCell id="RxBzn5ZrKJnADCytJNZN-55" value="&lt;font style=&quot;font-size: 28px;&quot;&gt;Debug radio&lt;/font&gt;" style="rounded=0;whiteSpace=wrap;html=1;fontSize=14;fillColor=#f5f5f5;strokeColor=#666666;fontColor=#333333;" parent="1" vertex="1">
          <mxGeometry x="866" y="1835.4999999999998" width="363" height="44.25" as="geometry" />
        </mxCell>
        <mxCell id="RxBzn5ZrKJnADCytJNZN-56" value="SD storage" style="rounded=0;whiteSpace=wrap;html=1;fontSize=28;fillColor=#f5f5f5;strokeColor=#666666;fontColor=#333333;" parent="1" vertex="1">
          <mxGeometry x="866" y="1900.4999999999998" width="362" height="43" as="geometry" />
        </mxCell>
        <mxCell id="RxBzn5ZrKJnADCytJNZN-63" value="Iridium modem" style="rounded=0;whiteSpace=wrap;html=1;fontSize=28;fillColor=#bac8d3;strokeColor=#23445d;" parent="1" vertex="1">
          <mxGeometry x="1630" y="1828.5" width="320" height="60" as="geometry" />
        </mxCell>
        <mxCell id="RxBzn5ZrKJnADCytJNZN-64" value="Iridium antenna" style="rounded=0;whiteSpace=wrap;html=1;fontSize=28;fillColor=#bac8d3;strokeColor=#23445d;" parent="1" vertex="1">
          <mxGeometry x="1630" y="1918.5" width="320" height="52" as="geometry" />
        </mxCell>
        <mxCell id="RxBzn5ZrKJnADCytJNZN-69" value="9 axis IMU" style="rounded=0;whiteSpace=wrap;html=1;fillColor=#f5f5f5;strokeColor=#666666;fontSize=28;fontColor=#333333;" parent="1" vertex="1">
          <mxGeometry x="866" y="2029" width="362" height="52.5" as="geometry" />
        </mxCell>
        <mxCell id="RxBzn5ZrKJnADCytJNZN-73" style="edgeStyle=orthogonalEdgeStyle;rounded=0;orthogonalLoop=1;jettySize=auto;html=1;exitX=0.219;exitY=1.011;exitDx=0;exitDy=0;exitPerimeter=0;strokeWidth=10;endArrow=baseDash;endFill=0;strokeColor=#FF0000;startArrow=baseDash;startFill=0;" parent="1" edge="1">
          <mxGeometry relative="1" as="geometry">
            <mxPoint x="1450" y="1617.4999999999998" as="sourcePoint" />
            <mxPoint x="1450" y="1656.4999999999998" as="targetPoint" />
            <Array as="points">
              <mxPoint x="1450" y="1614.4999999999998" />
              <mxPoint x="1450" y="1614.4999999999998" />
            </Array>
          </mxGeometry>
        </mxCell>
        <mxCell id="RxBzn5ZrKJnADCytJNZN-75" value="Battery charging circuitry" style="rounded=0;whiteSpace=wrap;html=1;fillColor=#f8cecc;strokeColor=#b85450;fontSize=28;" parent="1" vertex="1">
          <mxGeometry x="1260" y="1656.4999999999998" width="350" height="65" as="geometry" />
        </mxCell>
        <mxCell id="RxBzn5ZrKJnADCytJNZN-78" value="" style="endArrow=baseDash;html=1;rounded=1;fontSize=29;strokeColor=#000000;strokeWidth=9;endFill=0;entryX=0;entryY=0.5;entryDx=0;entryDy=0;startArrow=baseDash;startFill=0;" parent="1" target="RxBzn5ZrKJnADCytJNZN-80" edge="1">
          <mxGeometry width="50" height="50" relative="1" as="geometry">
            <mxPoint x="1520" y="2040.5" as="sourcePoint" />
            <mxPoint x="1581.7700000000004" y="2049" as="targetPoint" />
            <Array as="points" />
          </mxGeometry>
        </mxCell>
        <mxCell id="RxBzn5ZrKJnADCytJNZN-80" value="KREM separation detect" style="rounded=0;whiteSpace=wrap;html=1;fontSize=28;fillColor=#bac8d3;strokeColor=#23445d;" parent="1" vertex="1">
          <mxGeometry x="1630" y="2003.5" width="320" height="73" as="geometry" />
        </mxCell>
        <mxCell id="RxBzn5ZrKJnADCytJNZN-81" value="KREPE-1" style="text;html=1;strokeColor=none;fillColor=none;align=center;verticalAlign=middle;whiteSpace=wrap;rounded=0;fontSize=120;" parent="1" vertex="1">
          <mxGeometry x="1104.2700000000004" y="1286.4999999999998" width="580" height="215.75" as="geometry" />
        </mxCell>
        <mxCell id="RxBzn5ZrKJnADCytJNZN-83" style="edgeStyle=orthogonalEdgeStyle;rounded=0;orthogonalLoop=1;jettySize=auto;html=1;exitX=0.219;exitY=1.011;exitDx=0;exitDy=0;exitPerimeter=0;strokeWidth=10;endArrow=baseDash;endFill=0;strokeColor=#FF0000;startArrow=baseDash;startFill=0;" parent="1" edge="1">
          <mxGeometry relative="1" as="geometry">
            <mxPoint x="1790" y="1617.4999999999998" as="sourcePoint" />
            <mxPoint x="1790" y="1657" as="targetPoint" />
            <Array as="points">
              <mxPoint x="1790" y="1614.4999999999998" />
              <mxPoint x="1790" y="1614.4999999999998" />
            </Array>
          </mxGeometry>
        </mxCell>
        <mxCell id="RxBzn5ZrKJnADCytJNZN-85" style="edgeStyle=orthogonalEdgeStyle;rounded=0;orthogonalLoop=1;jettySize=auto;html=1;exitX=1;exitY=0.5;exitDx=0;exitDy=0;strokeWidth=10;endArrow=none;endFill=0;strokeColor=#FF0000;startArrow=baseDash;startFill=0;" parent="1" source="RxBzn5ZrKJnADCytJNZN-70" edge="1">
          <mxGeometry relative="1" as="geometry">
            <mxPoint x="1540" y="1627.4999999999998" as="sourcePoint" />
            <mxPoint x="1990" y="1740" as="targetPoint" />
            <Array as="points">
              <mxPoint x="1990" y="1688" />
            </Array>
          </mxGeometry>
        </mxCell>
        <mxCell id="RxBzn5ZrKJnADCytJNZN-70" value="&lt;font style=&quot;font-size: 28px;&quot;&gt;Digital switch&lt;/font&gt;" style="rounded=0;whiteSpace=wrap;html=1;fillColor=#f8cecc;strokeColor=#b85450;fontSize=28;" parent="1" vertex="1">
          <mxGeometry x="1630" y="1656.5" width="330" height="63.5" as="geometry" />
        </mxCell>
        <mxCell id="RxBzn5ZrKJnADCytJNZN-87" style="edgeStyle=orthogonalEdgeStyle;rounded=0;orthogonalLoop=1;jettySize=auto;html=1;entryX=1;entryY=0.5;entryDx=0;entryDy=0;strokeWidth=10;endArrow=baseDash;endFill=0;startArrow=baseDash;startFill=0;strokeColor=#007fff;" parent="1" edge="1">
          <mxGeometry relative="1" as="geometry">
            <mxPoint x="1340" y="1990.4999999999998" as="sourcePoint" />
            <mxPoint x="1229" y="1990.4999999999998" as="targetPoint" />
            <Array as="points">
              <mxPoint x="1310" y="1990.4999999999998" />
              <mxPoint x="1310" y="1990.4999999999998" />
            </Array>
          </mxGeometry>
        </mxCell>
        <mxCell id="RxBzn5ZrKJnADCytJNZN-91" style="edgeStyle=orthogonalEdgeStyle;rounded=0;orthogonalLoop=1;jettySize=auto;html=1;strokeWidth=10;endArrow=baseDash;endFill=0;fillColor=#f8cecc;strokeColor=#FF0000;entryX=0;entryY=0.5;entryDx=0;entryDy=0;" parent="1" edge="1">
          <mxGeometry relative="1" as="geometry">
            <mxPoint x="827" y="1800" as="sourcePoint" />
            <mxPoint x="866" y="1990" as="targetPoint" />
            <Array as="points">
              <mxPoint x="827" y="1990.5" />
            </Array>
          </mxGeometry>
        </mxCell>
        <mxCell id="RxBzn5ZrKJnADCytJNZN-92" style="edgeStyle=orthogonalEdgeStyle;rounded=0;orthogonalLoop=1;jettySize=auto;html=1;strokeWidth=10;endArrow=baseDash;endFill=0;fillColor=#f8cecc;strokeColor=#FF0000;entryX=0;entryY=0.5;entryDx=0;entryDy=0;" parent="1" edge="1">
          <mxGeometry relative="1" as="geometry">
            <mxPoint x="827" y="1875" as="sourcePoint" />
            <mxPoint x="866" y="2129" as="targetPoint" />
            <Array as="points">
              <mxPoint x="827" y="2129.5" />
            </Array>
          </mxGeometry>
        </mxCell>
        <mxCell id="RxBzn5ZrKJnADCytJNZN-77" value="High-g accelerometer" style="rounded=0;whiteSpace=wrap;html=1;fillColor=#f5f5f5;strokeColor=#666666;fontSize=28;fontColor=#333333;" parent="1" vertex="1">
          <mxGeometry x="866" y="2101.5" width="364" height="50" as="geometry" />
        </mxCell>
        <mxCell id="RxBzn5ZrKJnADCytJNZN-88" value="Barometric pressure sensor" style="rounded=0;whiteSpace=wrap;html=1;fontSize=28;fillColor=#f5f5f5;strokeColor=#666666;fontColor=#333333;" parent="1" vertex="1">
          <mxGeometry x="866" y="1967.5" width="362" height="41.5" as="geometry" />
        </mxCell>
        <mxCell id="RxBzn5ZrKJnADCytJNZN-71" value="3.3V regulator" style="rounded=0;whiteSpace=wrap;html=1;fillColor=#f8cecc;strokeColor=#b85450;fontSize=28;" parent="1" vertex="1">
          <mxGeometry x="790" y="1757.2499999999998" width="439" height="53" as="geometry" />
        </mxCell>
        <mxCell id="RxBzn5ZrKJnADCytJNZN-95" value="" style="edgeStyle=orthogonalEdgeStyle;rounded=0;orthogonalLoop=1;jettySize=auto;html=1;strokeWidth=10;strokeColor=#000000;endArrow=baseDash;endFill=0;" parent="1" edge="1">
          <mxGeometry relative="1" as="geometry">
            <mxPoint x="1040" y="2255" as="sourcePoint" />
            <mxPoint x="1040" y="2285" as="targetPoint" />
          </mxGeometry>
        </mxCell>
        <mxCell id="RxBzn5ZrKJnADCytJNZN-54" value="Thermocouple to digital converters" style="rounded=0;whiteSpace=wrap;html=1;fillColor=#f5f5f5;strokeColor=#666666;fontSize=28;fontColor=#333333;" parent="1" vertex="1">
          <mxGeometry x="866" y="2171" width="362" height="94" as="geometry" />
        </mxCell>
        <mxCell id="RxBzn5ZrKJnADCytJNZN-93" value="Thermocouples" style="rounded=0;whiteSpace=wrap;html=1;fillColor=#f5f5f5;strokeColor=#666666;fontSize=28;fontColor=#333333;" parent="1" vertex="1">
          <mxGeometry x="866" y="2286" width="362" height="64" as="geometry" />
        </mxCell>
        <mxCell id="RxBzn5ZrKJnADCytJNZN-98" value="" style="endArrow=baseDash;html=1;rounded=1;fontSize=29;strokeColor=#000000;strokeWidth=9;endFill=0;entryX=0.486;entryY=-0.01;entryDx=0;entryDy=0;startArrow=baseDash;startFill=0;entryPerimeter=0;" parent="1" target="RxBzn5ZrKJnADCytJNZN-97" edge="1">
          <mxGeometry width="50" height="50" relative="1" as="geometry">
            <mxPoint x="1427" y="2280" as="sourcePoint" />
            <mxPoint x="1538.09" y="2280" as="targetPoint" />
            <Array as="points" />
          </mxGeometry>
        </mxCell>
        <mxCell id="RxBzn5ZrKJnADCytJNZN-79" value="Main processor&lt;br&gt;(Teensy 3.5)" style="rounded=0;whiteSpace=wrap;html=1;fillColor=#f5f5f5;fontSize=28;fontColor=#333333;strokeColor=#666666;" parent="1" vertex="1">
          <mxGeometry x="1320" y="1756.5" width="220" height="523.5" as="geometry" />
        </mxCell>
        <mxCell id="RxBzn5ZrKJnADCytJNZN-99" style="edgeStyle=orthogonalEdgeStyle;rounded=0;orthogonalLoop=1;jettySize=auto;html=1;strokeWidth=10;endArrow=none;endFill=0;startArrow=baseDash;startFill=0;strokeColor=#007fff;exitX=0;exitY=0.276;exitDx=0;exitDy=0;exitPerimeter=0;" parent="1" source="RxBzn5ZrKJnADCytJNZN-97" edge="1">
          <mxGeometry relative="1" as="geometry">
            <mxPoint x="1342" y="2358" as="sourcePoint" />
            <mxPoint x="1280" y="2220" as="targetPoint" />
            <Array as="points">
              <mxPoint x="1280" y="2357" />
            </Array>
          </mxGeometry>
        </mxCell>
        <mxCell id="RxBzn5ZrKJnADCytJNZN-74" value="&lt;font style=&quot;font-size: 28px;&quot;&gt;Batteries and protection circuitry&lt;/font&gt;" style="rounded=0;whiteSpace=wrap;html=1;fillColor=#f8cecc;strokeColor=#b85450;fontSize=28;" parent="1" vertex="1">
          <mxGeometry x="790" y="1526.5" width="1220" height="90" as="geometry" />
        </mxCell>
        <mxCell id="RxBzn5ZrKJnADCytJNZN-101" style="edgeStyle=orthogonalEdgeStyle;rounded=0;orthogonalLoop=1;jettySize=auto;html=1;entryX=-0.015;entryY=0.538;entryDx=0;entryDy=0;strokeWidth=10;endArrow=baseDash;endFill=0;fillColor=#f8cecc;strokeColor=#FF0000;entryPerimeter=0;" parent="1" target="RxBzn5ZrKJnADCytJNZN-97" edge="1">
          <mxGeometry relative="1" as="geometry">
            <mxPoint x="827" y="2188.5" as="sourcePoint" />
            <mxPoint x="866" y="2388" as="targetPoint" />
            <Array as="points">
              <mxPoint x="827" y="2387" />
            </Array>
          </mxGeometry>
        </mxCell>
        <mxCell id="RxBzn5ZrKJnADCytJNZN-97" value="Safety processor&lt;br&gt;(SAMD21E18)" style="rounded=0;whiteSpace=wrap;html=1;fillColor=#f5f5f5;fontSize=28;fontColor=#333333;strokeColor=#666666;" parent="1" vertex="1">
          <mxGeometry x="1320" y="2326" width="220" height="113.5" as="geometry" />
        </mxCell>
      </root>
    </mxGraphModel>
  </diagram>
</mxfile>
